<?xml version="1.0" encoding="utf-8"?>
<!-- Generator: Adobe Illustrator 27.5.0, SVG Export Plug-In . SVG Version: 6.00 Build 0)  -->
<svg version="1.1" xmlns="http://www.w3.org/2000/svg" xmlns:xlink="http://www.w3.org/1999/xlink" x="0px" y="0px"
	 viewBox="0 0 750 500" style="enable-background:new 0 0 750 500;" xml:space="preserve">
<g id="BACKGROUND">
	<g>
		<rect style="fill:#2A336B;" width="750" height="500"/>
	</g>
</g>
<g id="OBJECTS">
	<g>
		<g>
			<g>
				<path style="fill:#F8C9C8;" d="M329.677,79.546c-0.3-0.254-0.662-0.41-1.062-0.4c-0.391,0.01-0.8,0.196-1.066,0.483
					c-0.179,0.195-0.299,0.422-0.361,0.679c-0.06,0.258-0.052,0.514,0.021,0.769c0.024,0.131,0.047,0.262,0.071,0.394
					c0.076,0.252,0.209,0.467,0.401,0.647c0.186,0.17,0.401,0.285,0.646,0.343c0.353,0.055,0.379,0.042,0.731-0.02
					c0.251-0.076,0.467-0.209,0.647-0.401c0.17-0.186,0.284-0.401,0.343-0.646c0.024-0.133,0.048-0.265,0.072-0.398
					C330.214,80.478,330.098,79.902,329.677,79.546z"/>
				<path style="fill:#F8C9C8;" d="M25.583,175.092c-0.3-0.254-0.662-0.41-1.062-0.4c-0.391,0.01-0.801,0.196-1.066,0.482
					c-0.179,0.195-0.299,0.422-0.36,0.679c-0.06,0.258-0.052,0.514,0.021,0.769c0.024,0.131,0.047,0.262,0.071,0.394
					c0.076,0.251,0.209,0.467,0.401,0.647c0.186,0.17,0.401,0.285,0.646,0.343c0.353,0.055,0.379,0.042,0.731-0.02
					c0.252-0.076,0.467-0.209,0.647-0.401c0.17-0.186,0.284-0.401,0.343-0.646c0.024-0.133,0.048-0.265,0.072-0.398
					C26.12,176.024,26.004,175.448,25.583,175.092z"/>
				<path style="fill:#F8C9C8;" d="M40.969,49.452c-3.457,0-3.304,5.356,0.14,5.356C44.567,54.808,44.414,49.452,40.969,49.452z"/>
				<path style="fill:#F8C9C8;" d="M287.289,128.275c-1.923,0-1.838,2.979,0.078,2.979
					C289.29,131.254,289.205,128.275,287.289,128.275z"/>
				<path style="fill:#F8C9C8;" d="M243.814,21.486c-0.074-0.069-0.149-0.138-0.223-0.207c-0.205-0.19-0.477-0.32-0.744-0.395
					c-0.212-0.058-0.422-0.061-0.63-0.01c-0.148,0.004-0.286,0.046-0.413,0.124c-0.145,0.044-0.269,0.121-0.372,0.231
					c-0.126,0.079-0.224,0.184-0.294,0.315c-0.098,0.107-0.164,0.231-0.197,0.372c-0.091,0.193-0.13,0.399-0.117,0.617
					c0.022,0.141,0.044,0.281,0.066,0.422l0.181,0.403c0.094,0.114,0.187,0.228,0.281,0.341c0.116,0.082,0.233,0.165,0.349,0.247
					c0.132,0.049,0.263,0.099,0.395,0.148c0.212,0.058,0.422,0.061,0.63,0.01c0.148-0.004,0.286-0.046,0.413-0.124
					c0.212-0.074,0.393-0.198,0.543-0.372c0.069-0.064,0.139-0.128,0.208-0.191c0.23-0.212,0.384-0.656,0.363-0.964
					C244.227,22.086,244.089,21.741,243.814,21.486z"/>
				<path style="fill:#F8C9C8;" d="M716.481,109.389c-2.209,0-2.111,3.423,0.09,3.423
					C718.78,112.811,718.682,109.389,716.481,109.389z"/>
				<path style="fill:#F8C9C8;" d="M475.126,66.422c-0.159-0.112-0.317-0.225-0.476-0.337c-0.348-0.182-0.719-0.269-1.112-0.26
					c-0.306-0.004-0.59,0.068-0.852,0.214c-0.289,0.101-0.537,0.27-0.741,0.507c-0.212,0.214-0.358,0.462-0.438,0.746
					c-0.125,0.264-0.178,0.545-0.16,0.842c0.041,0.589,0.257,1.2,0.721,1.593c0.159,0.112,0.318,0.225,0.476,0.337
					c0.348,0.182,0.719,0.269,1.112,0.261c0.306,0.004,0.59-0.068,0.852-0.214c0.289-0.101,0.537-0.27,0.741-0.507
					c0.212-0.214,0.358-0.462,0.438-0.746c0.124-0.264,0.178-0.545,0.16-0.842C475.807,67.425,475.591,66.815,475.126,66.422z"/>
				<path style="fill:#F8C9C8;" d="M689.671,38.272c-0.159-0.112-0.318-0.225-0.476-0.337c-0.348-0.182-0.719-0.269-1.112-0.261
					c-0.306-0.004-0.59,0.068-0.852,0.214c-0.289,0.101-0.537,0.27-0.741,0.507c-0.212,0.213-0.358,0.462-0.438,0.746
					c-0.124,0.264-0.178,0.545-0.16,0.842c0.041,0.589,0.257,1.2,0.721,1.593c0.159,0.112,0.317,0.225,0.476,0.337
					c0.348,0.182,0.719,0.269,1.112,0.26c0.306,0.004,0.59-0.068,0.852-0.214c0.29-0.101,0.537-0.27,0.741-0.507
					c0.212-0.214,0.358-0.462,0.438-0.746c0.125-0.264,0.178-0.545,0.16-0.842C690.351,39.276,690.135,38.666,689.671,38.272z"/>
				<path style="fill:#F8C9C8;" d="M555.937,132.576c-1.084,0-1.036,1.68,0.044,1.68
					C557.065,134.255,557.017,132.576,555.937,132.576z"/>
				<path style="fill:#F8C9C8;" d="M626.63,142.746c-1.084,0-1.036,1.68,0.044,1.68C627.758,144.426,627.71,142.746,626.63,142.746z
					"/>
				<path style="fill:#F8C9C8;" d="M498.724,117.275c-1.432,0-1.368,2.218,0.058,2.218
					C500.214,119.494,500.15,117.275,498.724,117.275z"/>
				<path style="fill:#F8C9C8;" d="M443.451,139.586c-1.555,0-1.486,2.408,0.063,2.408C445.069,141.994,445,139.586,443.451,139.586
					z"/>
				<path style="fill:#F8C9C8;" d="M538.852,67.532c-1.473,0-1.408,2.282,0.06,2.282C540.384,69.813,540.319,67.532,538.852,67.532z
					"/>
				<path style="fill:#F8C9C8;" d="M612.446,84.123c-1.473,0-1.407,2.282,0.06,2.282C613.979,86.405,613.914,84.123,612.446,84.123z
					"/>
				<path style="fill:#F8C9C8;" d="M483.679,22.607c-0.009-0.364-0.183-0.747-0.45-0.994c-0.248-0.23-0.648-0.397-0.991-0.373
					c-0.368,0.025-0.749,0.16-0.994,0.45c-0.231,0.273-0.398,0.624-0.373,0.991c0.019,0.12,0.038,0.24,0.056,0.36
					c0.031,0.12,0.085,0.226,0.15,0.325c0.014,0.057,0.028,0.115,0.041,0.172c0.044,0.098,0.088,0.197,0.132,0.295
					c0.082,0.144,0.193,0.257,0.333,0.34c0.205,0.145,0.465,0.247,0.723,0.23c0.538-0.037,1.012-0.393,1.141-0.929
					c0.007-0.027,0.013-0.054,0.02-0.081C483.609,23.156,483.685,22.861,483.679,22.607z"/>
				<path style="fill:#F8C9C8;" d="M80.307,130.537c-0.107-0.354-0.295-0.657-0.564-0.909c-0.401-0.339-0.885-0.548-1.42-0.535
					c-0.274-0.003-0.528,0.061-0.762,0.191c-0.259,0.09-0.48,0.241-0.663,0.454c-0.462,0.499-0.677,1.279-0.454,1.936
					c0.028,0.084,0.057,0.168,0.085,0.251c0.014,0.042,0.027,0.084,0.043,0.126c0.069,0.153,0.138,0.307,0.206,0.46
					c0.102,0.148,0.216,0.285,0.342,0.411c0.175,0.174,0.379,0.294,0.612,0.359c0.217,0.102,0.447,0.146,0.691,0.131
					c0.505-0.035,0.948-0.227,1.308-0.592c0.066-0.065,0.121-0.139,0.165-0.223c0.158-0.187,0.261-0.404,0.309-0.649
					c0.015-0.043,0.029-0.085,0.043-0.128c0.029-0.085,0.058-0.171,0.087-0.256C80.414,131.22,80.405,130.877,80.307,130.537z"/>
				<path style="fill:#F8C9C8;" d="M119.586,66.584c-1.923,0-1.838,2.979,0.078,2.979C121.587,69.563,121.502,66.584,119.586,66.584
					z"/>
				<path style="fill:#F8C9C8;" d="M159.722,139.396c-3.355,0-3.206,5.197,0.136,5.197
					C163.213,144.593,163.064,139.396,159.722,139.396z"/>
				<path style="fill:#F8C9C8;" d="M207.027,175.448c-2.107,0-2.013,3.264,0.086,3.264
					C209.22,178.712,209.127,175.448,207.027,175.448z"/>
				<path style="fill:#F8C9C8;" d="M361.865,204.761c-1.473,0-1.408,2.282,0.06,2.282
					C363.397,207.043,363.332,204.761,361.865,204.761z"/>
				<path style="fill:#F8C9C8;" d="M231.764,124.747c-1.473,0-1.408,2.282,0.06,2.282
					C233.297,127.029,233.231,124.747,231.764,124.747z"/>
				<path style="fill:#F8C9C8;" d="M464.039,211.819c-1.821,0-1.74,2.82,0.074,2.82
					C465.933,214.639,465.853,211.819,464.039,211.819z"/>
				<path style="fill:#F8C9C8;" d="M392.153,53.829c-0.018-0.248-0.098-0.477-0.24-0.688c-0.104-0.152-0.222-0.288-0.355-0.407
					c-0.047-0.064-0.087-0.132-0.147-0.187c-0.111-0.078-0.221-0.157-0.332-0.235c-0.18-0.103-0.372-0.157-0.575-0.161
					c-0.134-0.031-0.268-0.027-0.401,0.011c-0.141,0.004-0.272,0.043-0.393,0.118c-0.138,0.042-0.256,0.115-0.355,0.22
					c-0.123,0.084-0.219,0.195-0.301,0.317c-0.138,0.122-0.258,0.261-0.341,0.434c-0.055,0.147-0.11,0.295-0.165,0.442
					c-0.065,0.237-0.068,0.472-0.011,0.706c0.018,0.248,0.098,0.477,0.24,0.688c0.105,0.127,0.21,0.255,0.315,0.382
					c0.175,0.174,0.379,0.294,0.612,0.359c0.216,0.102,0.447,0.146,0.691,0.131l0.473-0.074c0.249-0.064,0.463-0.184,0.643-0.36
					c0.203-0.139,0.359-0.321,0.468-0.548c0.055-0.147,0.11-0.295,0.165-0.442C392.207,54.298,392.211,54.063,392.153,53.829z"/>
				<path style="fill:#F8C9C8;" d="M604.216,30.051c-0.018-0.248-0.098-0.477-0.24-0.688c-0.104-0.152-0.222-0.288-0.355-0.407
					c-0.047-0.063-0.087-0.132-0.147-0.187c-0.111-0.078-0.221-0.157-0.332-0.235c-0.18-0.104-0.372-0.157-0.575-0.161
					c-0.135-0.031-0.268-0.027-0.401,0.011c-0.141,0.004-0.272,0.043-0.393,0.118c-0.138,0.042-0.256,0.115-0.354,0.22
					c-0.123,0.084-0.219,0.194-0.301,0.317c-0.138,0.122-0.258,0.261-0.341,0.434c-0.055,0.147-0.11,0.295-0.165,0.442
					c-0.065,0.237-0.069,0.472-0.011,0.706c0.018,0.248,0.098,0.477,0.24,0.688c0.105,0.127,0.21,0.255,0.315,0.382
					c0.175,0.174,0.379,0.294,0.611,0.359c0.217,0.102,0.447,0.146,0.691,0.131l0.473-0.074c0.249-0.064,0.463-0.184,0.643-0.36
					c0.203-0.139,0.359-0.321,0.468-0.548c0.055-0.147,0.11-0.295,0.165-0.442C604.269,30.52,604.273,30.285,604.216,30.051z"/>
				<path style="fill:#F8C9C8;" d="M289.688,44.535c-1.78,0-1.701,2.757,0.072,2.757C291.539,47.292,291.461,44.535,289.688,44.535z
					"/>
				<path style="fill:#F8C9C8;" d="M187.087,52.868c-2.291,0-2.189,3.549,0.093,3.549C189.471,56.417,189.369,52.868,187.087,52.868
					z"/>
				<path style="fill:#F8C9C8;" d="M103.811,12.218c-2.291,0-2.19,3.549,0.093,3.549C106.195,15.767,106.094,12.218,103.811,12.218z
					"/>
				<path style="fill:#F8C9C8;" d="M288.652,200.51c-0.047-0.297-0.181-0.574-0.405-0.781c-0.216-0.2-0.49-0.31-0.779-0.34
					c-0.115-0.027-0.23-0.023-0.344,0.009c-0.121,0.004-0.234,0.037-0.337,0.101c-0.273,0.123-0.504,0.32-0.646,0.589
					c-0.106,0.201-0.152,0.44-0.156,0.665c-0.002,0.183,0.041,0.353,0.128,0.51c0.06,0.173,0.161,0.321,0.303,0.444
					c0.108,0.083,0.215,0.167,0.323,0.25c0.155,0.12,0.306,0.2,0.504,0.22c0.176,0.018,0.402-0.006,0.547-0.119l0.251-0.195
					c0.093-0.077,0.186-0.153,0.279-0.23c0.127-0.128,0.214-0.277,0.262-0.446C288.668,200.961,288.69,200.747,288.652,200.51z"/>
			</g>
			<g>
				<radialGradient id="SVGID_1_" cx="380.611" cy="150.0885" r="64.0061" gradientUnits="userSpaceOnUse">
					<stop  offset="0" style="stop-color:#F1C7BC"/>
					<stop  offset="1" style="stop-color:#F1C7BC;stop-opacity:0"/>
				</radialGradient>
				<circle style="fill:url(#SVGID_1_);" cx="380.611" cy="150.089" r="64.006"/>
				
					<ellipse transform="matrix(0.9342 -0.3567 0.3567 0.9342 -28.4998 145.6515)" style="fill:#F8C9C8;" cx="380.611" cy="150.089" rx="34.393" ry="34.393"/>
			</g>
		</g>
		<g>
			<g>
				<g>
					<rect y="298.184" style="fill:#24329A;" width="750" height="201.816"/>
				</g>
				<path style="fill:#1B2573;" d="M606.691,303.523h-0.01h-61.459H360.931H0v42.719c30.145,4.635,60.375,9.405,90.945,12.737
					c26.648,2.904,53.556,4.712,80.893,4.388c15.362-0.182,30.858-1.034,46.522-2.75c24-2.826,44-10.831,68-14.599
					c41.181-6.59,81.405-13.847,121.754-20.497c32.516,6.048,64.6,12.585,96.246,20.968c14,3.767,28,8.006,43,10.36
					c21.513,3.567,43.118,5.23,64.814,5.661c45.538,0.904,91.479-3.627,137.826-7.42v-15.417v0v-36.151H606.691z"/>
			</g>
			<g>
				<g>
					<path style="fill:#384791;" d="M360.931,303.523c-5.401-1.404-10.9-2.822-16.571-4.239c-9-2-17-4-25-9c25,1,49,7,74,7
						c-31-17-65-28-97-46c-18-10-36-18-55-28c-23.75-11.281-48.558-19.39-74.004-25.372c-17.411-4.093-35.121-7.191-52.996-9.628
						c-7.777-1.228-15.596-2.072-23.415-2.52c-30.571,7.075-60.8,17.204-90.945,27.047v90.713H360.931z"/>
					<path style="fill:#4051A6;" d="M241.36,223.284c19,10,37,18,55,28c32,18,66,29,97,46c-25,0-49-6-74-7c8,5,16,7,25,9
						c5.67,1.418,11.169,2.835,16.571,4.239h184.291c-54.894-8.511-108.672-23.488-159.862-46.239c12,7,23,14,34,22
						c-55-9-102-37-154-55c13-5,27,4,41,3c-34-12-66-26-99-40c-11.666-4.583-23.508-8.281-35.522-10.839
						c-27.337-0.687-54.245,3.151-80.893,9.318c7.818,0.448,15.637,1.292,23.415,2.52C158.36,194.284,201.36,204.284,241.36,223.284
						z"/>
					<path style="fill:#F1AE9C;" d="M306.36,227.284c-14,1-28-8-41-3c52,18,99,46,154,55c-11-8-22-15-34-22
						c51.189,22.751,104.968,37.728,159.862,46.239h61.469c-4.11-0.429-8.22-0.846-12.331-1.239c-108-10-205-54-308-89
						c-24-8-44-25-68-31c-15.663-3.643-31.16-5.453-46.522-5.839c12.013,2.558,23.856,6.256,35.522,10.839
						C240.36,201.284,272.36,215.284,306.36,227.284z"/>
					<path style="fill:#384791;" d="M606.681,303.523H750v-76.766c-16.858-7.852-34.441-14.203-51.64-19.474
						c-34.402-11.467-75.19-12.878-109.287,0.981c8.429-1.555,16.858,6.705,25.287,5.019c-36,6-68,27-97,47c9-9,17-19,27-27
						c-27.682,7.786-52.368,24.553-74.064,43.825c40.335,11.938,81.338,21.219,124.064,25.175
						C598.467,302.677,602.574,303.095,606.681,303.523z"/>
					<path style="fill:#4051A6;" d="M589.073,208.265c-1.571,0.29-3.142,0.919-4.713,2.019
						C585.914,209.574,587.489,208.909,589.073,208.265z"/>
					<path style="fill:#4051A6;" d="M612.174,178.264c-39.428,12.472-76.556,32.289-112.814,56.021c-9,7-18,14-30,15
						c8-4,14-12,22-16c-24.384,12.192-50.284,19.075-76.38,25.933c18.366,6.354,36.771,12.404,55.317,17.893
						c21.695-19.272,46.382-36.04,74.064-43.825c-10,8-18,18-27,27c29-20,61-41,97-47c-8.429,1.686-16.858-6.574-25.287-5.019
						c-1.584,0.644-3.159,1.309-4.713,2.019c1.571-1.1,3.142-1.729,4.713-2.019c34.096-13.858,74.885-12.448,109.287-0.981
						c17.199,5.271,34.781,11.621,51.64,19.474v-14.57C703.654,204.134,657.712,176.344,612.174,178.264z"/>
					<path style="fill:#F1AE9C;" d="M469.36,249.284c12-1,21-8,30-15c36.258-23.732,73.386-43.549,112.814-56.021
						c-21.696,0.915-43.301,4.446-64.814,12.021c-15,5-29,14-43,22c-31.655,17.806-63.747,31.69-96.272,44.536
						c2.297,0.804,4.594,1.602,6.892,2.397c26.096-6.858,51.997-13.741,76.38-25.933C483.36,237.284,477.36,245.284,469.36,249.284z
						"/>
				</g>
			</g>
			<g>
				<g>
					<path style="fill:#939FD5;" d="M0,278.31v26.166h327.2c0,0-12.7-3.549-27.16-6.599c-9.06-1.909-18.8-3.626-26.56-4.15
						c-35.43-2.392-83.75-4.984-150.79-8.398c-0.94-0.053-1.89-0.098-2.84-0.147c-0.51-0.025-1.03-0.053-1.54-0.078
						c-1.25-0.065-2.49-0.127-3.75-0.192c-0.91-0.045-1.83-0.094-2.75-0.139c-1.31-0.065-2.63-0.135-3.96-0.2
						c-0.06-0.004-0.13-0.008-0.2-0.012c-1.4-0.07-2.8-0.139-4.21-0.213c-0.93-0.045-1.87-0.094-2.81-0.139
						c-0.01,0-0.02-0.004-0.03-0.004c-2.57-0.127-5.18-0.262-7.81-0.392C65.75,282.374,35.7,280.346,0,278.31z"/>
					<path style="fill:#F8C9C8;" d="M253.75,294.774c-8.33-0.356-17.27-0.834-27.02-0.949c2.44,0.307,4.78,0.806,7.54,1.014
						c4.97,0.388,9.43,0.556,13.62,1.092c17.95,2.379,34.76,3.573,48.99,2.825c-1.76-0.797-5.56-1.161-8.56-1.5
						c2.32,0.09,6.52,0.315,11.72,0.621c-9.06-1.909-18.8-3.626-26.56-4.15c-35.43-2.392-83.75-4.984-150.79-8.398
						c-0.94-0.053-1.89-0.098-2.84-0.147c-0.51-0.025-1.03-0.053-1.54-0.078c-1.25-0.065-2.49-0.127-3.75-0.192
						c-0.91-0.045-1.83-0.094-2.75-0.139c-1.31-0.065-2.63-0.135-3.96-0.2c-0.06-0.004-0.13-0.008-0.2-0.012
						c-1.4-0.07-2.8-0.139-4.21-0.213c-0.93-0.045-1.87-0.094-2.81-0.139c53.93,4.411,95.09,6.047,126.89,8.111
						C237.11,292.975,246.79,293.335,253.75,294.774z"/>
					<path style="fill:#7281C4;" d="M171.154,299.456c-39.709-5.527-87.52-9.405-171.154-13.282v18.303h297.863
						c-9.044-1.072-19.222-2.129-31.318-3.048C244.481,299.712,205.328,297.975,171.154,299.456z"/>
					<path style="fill:#F8C9C8;" d="M172.926,291.984c-4.208-0.35-8.297-0.867-12.75-1.233c-13.711-1.13-29.541-0.746-46.15-1.871
						c29.162,2.604,52.456,4.037,74.99,4.633C185.058,292.994,177.541,292.367,172.926,291.984z"/>
				</g>
				<path style="fill:#131A52;" d="M297.863,304.477c-0.002,0-0.004,0-0.006,0.001h29.346c0,0-95.108,12.015-198.172,16.678
					c-0.135,0.006-0.271,0.012-0.407,0.018c-0.835,0.038-1.664,0.075-2.505,0.113c-1.139,0.052-2.282,0.103-3.431,0.155
					c-0.942,0.044-1.889,0.086-2.84,0.129c-1.749,0.078-3.512,0.158-5.283,0.238c-0.916,0.041-1.832,0.083-2.753,0.124
					c-1.313,0.059-2.635,0.119-3.961,0.178c-0.065,0.003-0.135,0.006-0.201,0.01c-1.396,0.062-2.801,0.125-4.21,0.189
					c-0.934,0.042-1.872,0.083-2.81,0.125c-0.009,0-0.017,0.002-0.026,0.002c-2.574,0.114-5.183,0.231-7.814,0.349
					c-27.045,1.274-57.095,3.072-92.791,4.876v-6.968v-16.215v-0.001H297.863z"/>
			</g>
			<g>
				<g>
					<path style="fill:#939FD5;" d="M750,312.176v31.07H571.086c0,0,6.944-4.214,14.851-7.835c4.954-2.267,10.28-4.306,14.523-4.928
						c19.373-2.84,45.795-5.918,82.452-9.971c0.514-0.063,1.033-0.116,1.553-0.175c0.279-0.029,0.563-0.063,0.842-0.092
						c0.684-0.078,1.362-0.151,2.05-0.228c0.498-0.053,1.001-0.112,1.504-0.165c0.716-0.078,1.438-0.16,2.165-0.238
						c0.033-0.005,0.071-0.01,0.109-0.014c0.766-0.083,1.531-0.165,2.302-0.253c0.508-0.053,1.022-0.112,1.536-0.165
						c0.005,0,0.011-0.005,0.016-0.005c1.405-0.151,2.832-0.311,4.271-0.466C714.048,317.002,730.479,314.594,750,312.176z"/>
					<path style="fill:#F8C9C8;" d="M611.249,331.726c4.555-0.422,9.443-0.99,14.775-1.126c-1.334,0.364-2.614,0.956-4.123,1.204
						c-2.718,0.461-5.156,0.66-7.448,1.296c-9.815,2.825-19.007,4.243-26.788,3.355c0.962-0.947,3.04-1.379,4.681-1.782
						c-1.269,0.107-3.565,0.374-6.408,0.738c4.954-2.267,10.28-4.306,14.523-4.928c19.373-2.84,45.795-5.918,82.452-9.971
						c0.514-0.063,1.033-0.116,1.553-0.175c0.279-0.029,0.563-0.063,0.842-0.092c0.684-0.078,1.362-0.151,2.05-0.228
						c0.498-0.053,1.001-0.112,1.504-0.165c0.716-0.078,1.438-0.16,2.165-0.238c0.033-0.005,0.071-0.01,0.109-0.014
						c0.766-0.083,1.531-0.165,2.302-0.253c0.508-0.053,1.022-0.112,1.536-0.165c-29.489,5.238-51.995,7.18-69.384,9.632
						C620.348,329.59,615.055,330.017,611.249,331.726z"/>
					<path style="fill:#7281C4;" d="M656.413,337.285c21.713-6.563,47.856-11.168,93.587-15.771v21.733H587.128
						c4.945-1.273,10.511-2.529,17.125-3.619C616.317,337.589,637.726,335.527,656.413,337.285z"/>
					<path style="fill:#F8C9C8;" d="M655.443,328.412c2.301-0.416,4.537-1.029,6.972-1.464c7.497-1.341,16.153-0.886,25.235-2.222
						c-15.946,3.092-28.683,4.794-41.005,5.501C648.81,329.612,652.92,328.868,655.443,328.412z"/>
				</g>
				<path style="fill:#131A52;" d="M587.128,343.247c0.001,0,0.002,0,0.003,0.001h-16.047c0,0,52.005,14.267,108.361,19.804
					c0.074,0.007,0.148,0.015,0.222,0.022c0.457,0.045,0.91,0.089,1.37,0.134c0.623,0.061,1.248,0.122,1.876,0.184
					c0.515,0.052,1.033,0.102,1.553,0.153c0.957,0.093,1.92,0.188,2.889,0.283c0.501,0.048,1.002,0.099,1.505,0.147
					c0.718,0.07,1.441,0.141,2.166,0.211c0.036,0.004,0.074,0.008,0.11,0.012c0.763,0.073,1.532,0.149,2.302,0.224
					c0.511,0.05,1.023,0.099,1.536,0.149c0.005,0,0.009,0.002,0.014,0.002c1.408,0.135,2.834,0.275,4.273,0.414
					c14.788,1.513,31.22,3.647,50.738,5.79v-8.274v-19.254v-0.001H587.128z"/>
			</g>
			<g>
				<g>
					<polygon style="fill:#F8C9C8;" points="116.636,373.501 276.724,373.501 255.471,358.443 252.156,315.647 184,223.018 
						161.017,265.719 168.149,276.814 158.639,317.232 137.241,322.78 					"/>
					<polygon style="fill:#F8C9C8;" points="188.929,229.718 184,223.018 161.017,265.719 168.149,276.814 158.639,317.232 
						137.241,322.78 116.636,373.501 138.145,373.501 147.844,333.862 166.343,327.802 175.629,283.582 188.878,292.573 
						171.581,262.304 					"/>
					<polygon style="fill:#939FD5;" points="256.578,359.228 255.471,358.443 252.156,315.647 244.375,305.072 242.987,346.991 
						232.433,294.573 237.926,353.845 262.145,373.501 266.009,373.501 					"/>
					<polygon style="fill:#7281C4;" points="237.926,353.845 232.433,294.573 230.844,286.683 188.929,229.718 178.2,249.872 
						198.653,303.051 183.462,306.668 176.258,346.078 168.684,338.244 157.55,373.501 262.145,373.501 					"/>
					<polygon style="fill:#939FD5;" points="178.2,249.872 171.581,262.304 188.878,292.573 175.629,283.582 166.343,327.802 
						147.844,333.862 138.145,373.501 157.55,373.501 168.684,338.244 176.258,346.078 183.462,306.668 198.653,303.051 					"/>
				</g>
				<polygon style="fill:#1B2573;" points="266.009,373.501 262.145,373.501 157.55,373.501 138.145,373.501 116.636,373.501 
					137.241,417.416 158.639,422.219 168.149,457.214 161.017,466.82 184,503.791 188.929,497.99 188.929,497.99 188.929,497.99 
					188.929,497.99 201.338,483.389 244.375,432.747 244.375,432.747 252.156,423.591 255.471,386.538 276.724,373.501 				"/>
			</g>
			<g>
				<g>
					<g>
						<polygon style="fill:#F8C9C8;" points="641.281,372.62 640.733,365.551 577.547,356.208 515.23,356.208 502.446,387.677 
							662.534,387.677 						"/>
						<polygon style="fill:#F8C9C8;" points="515.23,356.208 502.446,387.677 523.955,387.677 531.655,356.208 						"/>
						<polygon style="fill:#939FD5;" points="641.281,372.62 640.733,365.551 623.268,362.968 623.736,368.022 647.955,387.677 
							651.819,387.677 642.388,373.404 						"/>
						<polygon style="fill:#7281C4;" points="623.737,368.022 623.268,362.968 577.146,351.155 562.807,356.208 558.155,356.208 
							553.298,356.208 543.36,387.677 647.955,387.677 						"/>
						<polygon style="fill:#939FD5;" points="531.655,356.208 523.955,387.677 543.36,387.677 553.298,356.208 						"/>
						<polygon style="fill:#F8C9C8;" points="562.807,356.208 570.546,383.495 577.146,351.155 						"/>
					</g>
				</g>
				<polygon style="fill:#1B2573;" points="662.534,387.677 651.819,387.677 647.955,387.677 502.446,387.677 502.446,387.677 
					502.446,387.677 515.23,416.234 531.655,416.234 553.298,416.234 558.155,416.234 562.807,416.234 577.146,420.819 
					623.268,410.1 637.183,408.233 640.733,407.756 641.281,401.342 642.263,400.711 				"/>
			</g>
		</g>
		<g>
			<path style="fill:#F8C9C8;" d="M54.36,454.341c-9.642,0-17.993,1.593-26.609,2.647c14.869-1.225,29.739-0.64,44.609-1
				c30-0.412,60,0.823,91-1.646c8.945-0.789,17.887-1.748,26.571-2.872c-53.081,3.756-108.705-3.872-163.571-4.947
				c-8.584-0.236-17.496-0.604-26.36-0.569v7.662C18.12,452.325,36.24,452.565,54.36,454.341z"/>
			<path style="fill:#939FD5;" d="M27.751,456.987c-2.131,0.175-4.261,0.388-6.391,0.646
				C23.522,457.471,25.644,457.245,27.751,456.987z"/>
			<path style="fill:#939FD5;" d="M314.599,440.375c-3.447,0.21-6.863,0.47-10.239,0.797
				C307.781,440.927,311.193,440.659,314.599,440.375z"/>
			<path style="fill:#F8C9C8;" d="M314.599,440.375c-3.406,0.285-6.818,0.553-10.239,0.797
				C307.736,440.844,311.152,440.585,314.599,440.375c48.361-4.046,95.379-11.745,146.761-8.669
				c17.839,0.918,36.23,0.924,54.353-0.147c-104.335-12.153-204.8,3.238-302.353,17.432c-1.614,0.232-3.232,0.448-4.852,0.655
				c50.181-1.868,100.919-3.339,148.852-10.12C342.934,439.525,328.51,439.527,314.599,440.375z"/>
			<path style="fill:#F8C9C8;" d="M609.36,434.175c30-2.058,59-5.35,89-5.762c17.215-0.305,34.431-0.681,51.64-1.121v-10.558
				c-0.549,0.051-1.09,0.105-1.64,0.156c-60,4.939-115,9.054-172,15.639c-5.864,0.635-11.727,1.033-17.561,1.222
				C575.612,434.5,592.252,435.301,609.36,434.175z"/>
			<path style="fill:#F8C9C8;" d="M377.36,485.618c8-0.411,17-0.823,25-1.646c-95-4.939-191,1.235-286,0.412
				c57-1.235,113-6.585,169-11.112c-95.12-2.713-190.24-6.154-285.36-4.827v26.193c9.453-0.199,18.907-0.481,28.36-0.788
				C145.36,490.146,260.36,488.911,377.36,485.618z"/>
			<path style="fill:#939FD5;" d="M624.963,480.085c4.465,0.181,8.931,0.378,13.397,0.594
				C633.744,480.047,629.317,479.921,624.963,480.085z"/>
			<path style="fill:#939FD5;" d="M494.36,488.499c-19-3.292-39-4.116-59-5.762c62.6-4.23,126.073-5.225,189.603-2.652
				c4.354-0.164,8.78-0.039,13.397,0.594c-4.466-0.216-8.931-0.414-13.397-0.594c-9.794,0.369-19.22,2.209-29.603,3.064
				c19,0,37-2.058,56-1.235c33.11,1.858,65.937,2.551,98.64,2.977v-19.263c-39.13,1.428-78.27,3.363-117.64,4.351
				c11-0.823,23-1.646,34-3.292c8-0.823,15-2.469,24-2.469c-73-3.292-147-0.411-221-1.646c20-3.292,42-1.235,62-4.527
				c13-2.469,27-3.704,41-6.585c17-3.292,35-5.762,53-7.819c38-4.116,74-4.527,111-9.054c4.547-0.416,9.093-0.517,13.64-0.621
				v-6.674c-17.209,0.441-34.425,0.817-51.64,1.121c-30,0.411-59,3.704-89,5.762c-17.108,1.126-33.748,0.326-50.561-0.424
				c-13.071,0.423-25.994-0.211-38.439-1.634c-1.55-0.193-3.099-0.378-4.647-0.558c-18.123,1.07-36.514,1.064-54.353,0.147
				c-51.382-3.076-98.4,4.623-146.761,8.669c13.911-0.847,28.335-0.85,42.761-0.85c-47.933,6.781-98.671,8.253-148.852,10.12
				c-6.154,0.783-12.348,1.382-18.577,1.823c-8.684,1.125-17.626,2.084-26.571,2.872c-31,2.469-61,1.235-91,1.646
				c-14.869,0.36-29.739-0.225-44.609,1c-2.107,0.258-4.23,0.484-6.391,0.646c2.13-0.258,4.261-0.47,6.391-0.646
				c8.616-1.054,16.967-2.647,26.609-2.647c-18.12-1.776-36.24-2.015-54.36-0.727v14.831c95.12-1.327,190.24,2.114,285.36,4.827
				c-56,4.527-112,9.877-169,11.112c95,0.823,191-5.35,286-0.412c-8,0.823-17,1.235-25,1.646c-117,3.292-232,4.527-349,8.231
				c-9.453,0.307-18.907,0.589-28.36,0.788V500h243.084c57.368-5.647,117.821-3.592,178.276-7.797
				C446.36,490.146,469.36,489.322,494.36,488.499z"/>
			<path style="fill:#7281C4;" d="M750,484.895v15.1H243.08c31.4-3.09,63.72-3.87,96.46-4.64c27.08-0.63,54.45-1.25,81.82-3.15
				c11.34-0.93,22.28-1.61,33.17-2.16c13.11-0.65,26.17-1.1,39.83-1.55c-12.54-2.17-25.51-3.27-38.64-4.23
				c-6.76-0.51-13.56-0.97-20.36-1.53c6.94-0.47,13.89-0.9,20.85-1.28c55.82-3.13,112.26-3.66,168.75-1.37
				c-9.79,0.37-19.22,2.21-29.6,3.06c19,0,37-2.05,56-1.23C684.47,483.775,717.3,484.465,750,484.895z"/>
			<path style="fill:#F8C9C8;" d="M750,433.966c-4.547,0.104-9.093,0.205-13.64,0.621c-37,4.527-73,4.939-111,9.054
				c-18,2.058-36,4.527-53,7.819c-14,2.881-28,4.115-41,6.585c-20,3.292-42,1.235-62,4.527c74,1.235,148-1.646,221,1.646
				c-9,0-16,1.646-24,2.469c-11,1.646-23,2.469-34,3.292c39.37-0.988,78.51-2.923,117.64-4.351v-31.094V433.966z"/>
		</g>
		<g>
			<defs>
				<rect id="SVGID_00000170244149083903373930000002310796573764514457_" width="750" height="500"/>
			</defs>
			<clipPath id="SVGID_00000005967843472748437170000000517369255731842218_">
				<use xlink:href="#SVGID_00000170244149083903373930000002310796573764514457_"  style="overflow:visible;"/>
			</clipPath>
			<g style="clip-path:url(#SVGID_00000005967843472748437170000000517369255731842218_);">
				<g>
					<path style="fill:#080E3A;" d="M734.122,268.714c7.425-79.642,15.523-161.405,31.037-239.902
						c0.255-1.291,2.358-1.003,2.298,0.311c-3.736,81.575-12.961,163.636-19.839,245.046
						c-6.908,81.745-9.344,164.236-17.924,245.772c-0.85,8.078-12.945,8.496-12.913,0
						C717.101,436.429,726.374,351.824,734.122,268.714z"/>
					<path style="fill:#080E3A;" d="M668.118,147.107c0.108-0.418,0.79-0.342,0.766,0.104
						c-3.091,56.762,39.889,90.773,73.412,130.364c5.148,6.079-3.54,14.927-8.824,8.824
						C701.598,249.587,654.419,200.425,668.118,147.107z"/>
					<path style="fill:#080E3A;" d="M615.249,262.921c16.734,18.675,37.334,32.999,54.103,51.482
						c7.29,8.036,12.678,17.455,19.548,25.814c14.296,17.396,29.458,21.041,50.324,24.672c2.377,0.413,2.422,4.473,0,4.847
						c-23.869,3.691-44.45-10.688-58.053-29.198c-11.862-16.141-23.412-29.104-38.082-42.451
						c-11.447-10.415-22.086-20.387-28.453-34.694C614.471,263.021,614.929,262.564,615.249,262.921z"/>
					<path style="fill:#080E3A;" d="M593.646,286.565c19.201,52.856,64.732,79.23,120.431,74.359c3.592-0.314,3.62,5.389,0,5.633
						c-52.407,3.52-112.051-22.733-121.935-79.578C591.97,285.993,593.3,285.614,593.646,286.565z"/>
					<path style="fill:#080E3A;" d="M635.974,390.674c19.309-12.565,39.537-22.891,61.828-28.976
						c2.647-0.723,3.691,3.631,1.106,4.011c-22.828,3.358-42.499,14.979-62.803,25.189
						C635.956,390.974,635.833,390.766,635.974,390.674z"/>
					<path style="fill:#080E3A;" d="M602.142,344.002c19.998,2.84,44.722,22.39,65.106,13.132c2.386-1.083,4.486,2.428,2.078,3.555
						c-21.806,10.202-47.055-11.401-67.229-16.52C601.985,344.141,602.035,343.987,602.142,344.002z"/>
					<path style="fill:#080E3A;" d="M612.226,359.608c11.85,3.428,24.432,7.075,35.923,0.531c0.899-0.511,1.691,0.85,0.809,1.385
						c-11.906,7.217-24.784,3.185-36.778-1.749C612.08,359.734,612.115,359.576,612.226,359.608z"/>
					<path style="fill:#080E3A;" d="M656.155,265.922c13.798,16.638,18.139,38.392,19.416,59.394c0.084,1.39-2.095,1.392-2.167,0
						c-1.151-22.38-7.126-39.435-17.692-59.053C655.569,265.995,655.943,265.666,656.155,265.922z"/>
					<path style="fill:#080E3A;" d="M804.928,359.957c37.133-11.604,67.391-35.569,90.376-66.605
						c0.146-0.198,0.459-0.029,0.337,0.197c-13.972,25.969-35.989,46.512-61.897,60.42c-12.361,6.635-25.562,11.706-39.257,14.778
						c-19.101,4.284-54.916,1.229-56.448,28.101c-0.136,2.38-3.832,2.407-3.726,0C735.782,363.451,782.062,367.103,804.928,359.957z
						"/>
					<path style="fill:#080E3A;" d="M782.213,366.199c30.982,4.942,65.513,17.576,92.385-5.854c0.272-0.238,0.645,0.129,0.398,0.398
						c-24.325,26.543-63.226,15.477-93.774,9.049C778.843,369.292,779.891,365.829,782.213,366.199z"/>
					<path style="fill:#080E3A;" d="M776.003,368.807c4.677,4.19,6.458,10.197,9.644,15.452c4.376,7.221,11.043,15.65,20.224,16.015
						c0.366,0.015,0.358,0.534,0,0.563c-7.353,0.611-12.867-3.314-17.527-8.713c-5.539-6.416-8.079-15.74-14.454-21.203
						C772.433,369.674,774.568,367.521,776.003,368.807z"/>
					<path style="fill:#080E3A;" d="M784.721,364.427c5.656-5.055,7.328-10.313,8.025-17.72c0.344-3.649,1.226-7.286,2.634-10.673
						c2.566-6.172,6.738-10.64,12.071-14.507c0.083-0.06,0.168,0.067,0.105,0.136c-8.182,9.042-10.431,18.916-10.917,30.712
						c-0.285,6.931-4.182,11.129-9.504,15.183C785.339,368.927,783.045,365.925,784.721,364.427z"/>
					<path style="fill:#080E3A;" d="M841.621,343.255c7.665-10.735,7.955-23.546,11.733-35.757
						c3.182-10.284,8.586-19.008,15.885-26.849c0.165-0.177,0.482,0.057,0.34,0.262c-8.175,11.823-12.805,24.454-15.206,38.564
						c-1.651,9.699-3.611,18.258-9.791,26.065C843.265,347.201,840.377,344.998,841.621,343.255z"/>
					<path style="fill:#080E3A;" d="M776.304,305.52c11.791-9.93,24.539-18.661,36.163-28.801
						c14.707-12.83,25.391-28.31,37.204-43.69c0.131-0.171,0.418-0.022,0.299,0.175c-7.661,12.693-15.061,25.459-25.038,36.517
						c-9.771,10.832-21.162,20.008-32.259,29.417c-24.201,20.519-46.212,41.446-51.415,74.132c-0.533,3.351-6.083,2.564-5.915-0.8
						C736.713,345,756.219,322.434,776.304,305.52z"/>
					<path style="fill:#080E3A;" d="M806.866,259.254c0.083-0.102,0.218,0.028,0.17,0.131
						c-7.909,17.133-25.501,27.533-28.244,47.341c-0.262,1.895-3.283,1.133-2.925-0.806
						C779.344,287.098,795.261,273.46,806.866,259.254z"/>
					<path style="fill:#080E3A;" d="M757.749,327.353c11.412-9.869,28.978-9.823,42.364-16.356
						c17.129-8.36,29.823-20.975,41.642-35.599c0.129-0.16,0.355,0.044,0.272,0.21c-6.912,13.748-18.189,25.155-31.014,33.543
						c-5.922,3.873-12.24,7.095-18.849,9.624c-10.306,3.945-22.665,4.371-31.473,11.519
						C758.645,331.954,755.701,329.124,757.749,327.353z"/>
					<path style="fill:#080E3A;" d="M755.159,303.372c3.488-11.45,10.235-21.269,14.352-32.447c0.108-0.294,0.502-0.174,0.459,0.126
						c-1.443,10.311-6.231,19.442-9.317,29.293c-3.47,11.077-4.938,22.307-5.429,33.898c-0.113,2.668-4.092,2.687-4.16,0
						C750.803,323.782,752.105,313.396,755.159,303.372z"/>
					<path style="fill:#080E3A;" d="M612.683,180.633c7.349,18.508,21.914,33.591,40.457,40.993
						c15.381,6.139,32.362,6.343,47.219,14.048c2.876,1.491,0.351,5.649-2.515,4.302c-19.246-9.036-41.132-8.708-58.901-21.303
						c-13.203-9.358-21.678-22.724-26.511-37.971C612.381,180.54,612.623,180.482,612.683,180.633z"/>
					<path style="fill:#080E3A;" d="M672.986,256.945c14.579,9.252,26.154,21.926,34.926,36.787
						c4.406,7.464,7.932,15.405,10.644,23.634c1.696,5.145,2.622,10.646,5.158,15.487c2.538,4.845,6.835,8.115,10.233,12.286
						c1.012,1.242,0.464,3.473-1.41,3.402c-15.202-0.574-17.818-22.653-21.165-33.558c-7.056-22.99-21.174-41.453-38.886-57.392
						C672.141,257.281,672.591,256.695,672.986,256.945z"/>
					<path style="fill:#080E3A;" d="M682.731,298.625c5.579-0.99,10.802-0.624,15.867,2.12c6.008,3.255,9.311,10.559,15.932,12.605
						c2.474,0.764,1.312,4.75-1.06,3.844c-4.319-1.65-6.863-4.601-9.602-8.206c-5.179-6.818-12.264-10.978-21.08-9.937
						C682.548,299.078,682.491,298.667,682.731,298.625z"/>
					<path style="fill:#080E3A;" d="M715.965,317.892c0.078,0.177,0.155,0.354,0.232,0.532c0.689,1.581,2.758,1.084,3.567,0
						c7.541-10.114,3.153-23.888,0.449-34.969c-0.052-0.214-0.391-0.167-0.383,0.052c0.425,11.285,2.823,21.644-3.043,31.733
						c-0.074,0.052-0.159,0.073-0.224,0.144c-0.106,0.116-0.211,0.231-0.318,0.347C715.659,316.369,715.629,317.123,715.965,317.892
						z"/>
					<path style="fill:#080E3A;" d="M699.517,264.905c-0.063-0.102,0.092-0.229,0.17-0.131c6.924,8.66,13.508,18.428,8.057,29.629
						c-0.788,1.62-3.276,0.193-2.432-1.421C710.287,283.462,704.556,273.11,699.517,264.905z"/>
					<path style="fill:#080E3A;" d="M679.456,273.133c4.343,4.278,9.726,6.796,15.901,6.147c2.025-0.213,2.078,3.088,0,3.207
						c-6.628,0.377-13.454-2.855-16.241-9.091C679.02,273.183,679.269,272.949,679.456,273.133z"/>
					<path style="fill:#080E3A;" d="M613.845,208.607c5.39,6.154,11.903,11.118,19.694,13.816
						c7.839,2.713,15.141,1.193,23.098,1.908c1.964,0.176,1.961,3.282,0,3.077c-9.289-0.973-17.398,0.445-26.245-3.516
						c-7.173-3.211-12.806-8.363-16.752-15.127C613.569,208.641,613.746,208.493,613.845,208.607z"/>
					<path style="fill:#080E3A;" d="M642.99,171.705c8.171,11.561,17.273,22.272,26.419,33.046
						c6.288,7.407,8.375,15.216,10.409,24.65c0.237,1.102-1.437,1.981-1.94,0.818c-1.649-3.809-2.055-7.661-3.238-11.617
						c-2.349-7.858-7.717-13.086-12.83-19.172c-7.266-8.649-13.552-17.723-19.38-27.397
						C642.21,171.668,642.753,171.368,642.99,171.705z"/>
					<path style="fill:#080E3A;" d="M644.873,125.145c4.634,23.247,7.462,46.547,27.571,61.805c2.127,1.614,0.364,4.832-2.122,3.629
						c-21.68-10.495-26.538-44.08-26.428-65.301C643.897,124.733,644.76,124.58,644.873,125.145z"/>
					<path style="fill:#080E3A;" d="M694.404,184.95c-2.431-15.121-5.04-30.235-7.926-45.276c-0.041-0.217,0.289-0.311,0.334-0.092
						c3.215,15.604,7.262,31.032,10.393,46.65c2.907,14.5-4.016,27.41-1.982,41.709c0.452,3.176-4.252,3.733-4.298,0.582
						C690.702,213.491,696.846,200.146,694.404,184.95z"/>
					<path style="fill:#080E3A;" d="M741.151,293.902c7.665-23.869,24.522-39.334,46.867-49.521
						c13.248-6.04,26.85-11.298,38.007-20.969c12.547-10.874,21.988-25.068,31.809-38.323c0.148-0.199,0.45-0.032,0.337,0.197
						c-11.595,23.397-25.383,43.714-49.307,55.656c-11.737,5.86-24.463,10.048-35.579,17.1
						c-14.524,9.213-21.762,22.129-28.808,37.262C743.607,297.173,740.524,295.853,741.151,293.902z"/>
					<path style="fill:#080E3A;" d="M799.742,213.642c11.384-9.897,24.77-17.168,33.882-29.505c0.196-0.264,0.607-0.04,0.449,0.263
						c-5.636,10.841-14.651,17.852-24.02,25.37c-13.601,10.916-21.444,21.421-25.015,38.932c-0.487,2.388-4.07,1.363-3.635-1.002
						C784.001,233.574,788.826,223.132,799.742,213.642z"/>
					<path style="fill:#080E3A;" d="M748.139,221.515c17.639-9.261,34.87-12.649,49.504-27.65
						c14.94-15.315,24.405-34.761,34.74-53.235c0.093-0.167,0.389-0.054,0.317,0.133c-7.484,19.504-16.186,39.014-30.273,54.737
						c-6.03,6.73-13.042,12.735-20.901,17.247c-9.787,5.619-20.94,7.807-30.894,13.033
						C747.82,227.256,745.32,222.994,748.139,221.515z"/>
					<path style="fill:#080E3A;" d="M743.235,241.506c3.131-5.129,7.344-10.562,13.255-12.533c3.354-1.118,6.837-0.789,10.31-1.161
						c5.831-0.625,10.913-2.92,15.374-6.808c0.224-0.195,0.649,0.071,0.442,0.342c-3.386,4.442-7.489,7.682-13,9.125
						c-2.982,0.781-6.104,0.636-9.109,1.271c-6.878,1.452-9.988,6.451-13.98,11.69C745.087,245.321,741.918,243.663,743.235,241.506
						z"/>
					<path style="fill:#080E3A;" d="M749.269,183.882c4.502-4.018,9.484-6.419,14.795-9.218c9.36-4.933,16.557-11.22,22.957-19.611
						c10.806-14.168,19.847-29.88,29.331-44.952c0.313-0.498,1.05-0.062,0.786,0.459c-8.698,17.13-17.737,35.182-29.763,50.26
						c-9.808,12.298-23.004,17.633-35.978,25.819C749.73,187.688,747.769,185.22,749.269,183.882z"/>
					<path style="fill:#080E3A;" d="M791.255,120.756c0.244-0.309,0.757,0.092,0.544,0.42c-9.462,14.643-10.718,28.319-11.176,45.21
						c-0.041,1.509-2.38,1.95-2.723,0.369C774.446,150.839,781.508,133.1,791.255,120.756z"/>
					<path style="fill:#080E3A;" d="M802.12,164.449c0.086-0.068,0.199,0.038,0.123,0.123c-5.855,6.444-10.961,13.315-14.948,21.07
						c-4.02,7.82-5.446,16.15-8.766,24.117c-0.471,1.13-2.232,1.088-2.255-0.305C775.988,192.456,789.49,174.541,802.12,164.449z"/>
					<path style="fill:#080E3A;" d="M715.078,80.471c0.078-0.618,1.039-0.654,0.996,0c-2.5,38.275,0.599,87.929,28.925,117.002
						c2.045,2.098-1.169,5.319-3.217,3.217C712.224,170.351,710.057,120.001,715.078,80.471z"/>
					<path style="fill:#080E3A;" d="M726.085,175.339c3.726-12.209,8.354-23.212,5.95-36.27c-1.517-8.241-3.036-15.528-2.764-24.022
						c0.021-0.643,0.962-0.639,0.996,0c0.579,10.799,4.823,20.923,5.315,31.595c0.464,10.05-3.286,20.131-5.987,29.664
						C728.956,178.558,725.399,177.585,726.085,175.339z"/>
					<path style="fill:#080E3A;" d="M698.888,140.573c3.668,9.643,7.22,19.188,9.753,29.205c2.692,10.647,3.099,22.826,8.551,32.538
						c7.942,14.146,18.973,22.43,23,38.906c0.642,2.627-3.299,3.721-4.053,1.118c-3.105-10.714-7.893-18.994-14.755-27.675
						c-3.619-4.58-7.37-9.019-9.637-14.48c-3.785-9.119-4.052-19.973-6.07-29.59c-2.1-10.018-4.541-20.034-7.667-29.779
						C697.829,140.249,698.684,140.035,698.888,140.573z"/>
					<path style="fill:#080E3A;" d="M710.761,219.855c2.869,3.934,3.698,8.208,5.901,12.489c2.698,5.242,6.924,8.595,11.385,12.247
						c5.9,4.828,12.469,10.135,13.611,18.126c0.349,2.447-2.897,3.454-3.76,1.037c-3.523-9.864-11.097-14.382-17.845-21.694
						c-6.123-6.635-6.403-13.852-9.817-21.898C710.086,219.804,710.528,219.535,710.761,219.855z"/>
					<path style="fill:#080E3A;" d="M702.878,184.129c1.898,6.273,4.166,11.497,8.851,16.231c2.399,2.424,4.878,4.637,6.963,7.239
						c0.992-7.301,0.341-14.133,0.232-21.646c-0.005-0.333,0.487-0.485,0.646-0.175c4.021,7.855,3.368,17.844,1.498,26.209
						c-0.283,1.265-2.137,1.463-2.749,0.359c-2.929-5.279-8.055-8.519-11.607-13.295c-3.143-4.225-5.29-9.418-5.493-14.698
						C701.181,183.381,702.607,183.234,702.878,184.129z"/>
					<path style="fill:#080E3A;" d="M750.422,27.718c0.092-0.294,0.523-0.173,0.459,0.127c-6.345,29.924-4.597,58.488,4.877,87.493
						c0.674,2.065-2.479,2.87-3.217,0.887C741.958,87.822,741.355,56.559,750.422,27.718z"/>
					<path style="fill:#080E3A;" d="M755.509,130.384c21.112-26.082,31.096-57.281,32.214-90.584c0.012-0.338,0.493-0.331,0.52,0
						c2.723,34.059-8.895,66.816-29.884,93.433C756.761,135.259,753.884,132.392,755.509,130.384z"/>
					<path style="fill:#080E3A;" d="M768.771,110.665c11.736-8.312,21.866-14.911,26.811-29.084
						c3.107-8.905,4.907-17.737,10.093-25.762c0.156-0.241,0.48-0.032,0.374,0.219c-4.894,11.597-5.721,24.927-11.809,36
						c-5.274,9.591-15.112,15.376-23.676,21.694C768.734,115.083,766.907,111.984,768.771,110.665z"/>
					<path style="fill:#080E3A;" d="M795.135,146.348c9.388,0.648,14.734-7.044,19.806-13.667c3.982-5.2,8.167-10.228,12.233-15.361
						c0.107-0.135,0.332,0.041,0.238,0.184c-5.084,7.813-9.694,16.167-15.561,23.435c-4.276,5.297-9.684,9.149-16.716,8.745
						C792.997,149.562,792.994,146.2,795.135,146.348z"/>
					<path style="fill:#080E3A;" d="M807.674,185.498c6.748-0.803,12.006-2.892,15.447-9.14c1.992-3.617,3.503-7.226,7.227-9.366
						c0.126-0.072,0.267,0.101,0.157,0.204c-4.402,4.171-4.719,10.874-8.953,15.283c-3.451,3.592-8.826,6.243-13.878,5.619
						C806.011,187.892,806,185.697,807.674,185.498z"/>
					<path style="fill:#080E3A;" d="M830.554,223.05c4.994-1.437,8.901-2.837,12.771-6.558c3.284-3.157,5.958-6.943,8.838-10.458
						c0.182-0.223,0.482,0.061,0.374,0.289c-3.796,8.044-11.29,19.634-21.689,18.898
						C829.638,225.135,829.307,223.409,830.554,223.05z"/>
					<path style="fill:#080E3A;" d="M818.743,272.46c6.064-4.288,14.865-2.48,20.184-7.824c4.644-4.666,5.98-11.416,11.136-15.771
						c0.086-0.073,0.25,0.027,0.17,0.131c-4.227,5.497-5.076,13.052-9.99,18.075c-5.404,5.522-13.777,3.976-19.771,8.344
						C818.696,276.709,816.95,273.729,818.743,272.46z"/>
					<path style="fill:#080E3A;" d="M697.736,95.91c0.065-0.245,0.409-0.18,0.425,0.058c0.78,11.563,2.963,21.054,7.859,31.611
						c2.599,5.605,4.78,6.184,8.831,11.314c1.258,1.593,1.863,3.852,3.14,5.375c1.16,1.383-0.841,3.389-1.992,1.992
						c-5.771-7.009-10-12.069-13.624-20.655C698.465,116.341,695.064,105.929,697.736,95.91z"/>
				</g>
				<g>
					<path style="fill:#080E3A;" d="M15.551,284.283c0.926-79.982,2.351-162.132,11.433-241.632
						c0.149-1.308,2.269-1.191,2.316,0.123c2.908,81.609,0.385,164.148,0.146,245.848c-0.24,82.035,4.038,164.452,2.114,246.416
						c-0.191,8.12-12.212,9.52-12.87,1.05C12.22,452.826,14.585,367.747,15.551,284.283z"/>
					<path style="fill:#080E3A;" d="M-60.12,168.444c0.073-0.425,0.76-0.405,0.772,0.042c1.533,56.825,47.136,87.23,83.766,123.965
						c5.625,5.641-2.315,15.165-8.077,9.512C-18.42,267.863-69.44,222.698-60.12,168.444z"/>
					<path style="fill:#080E3A;" d="M-103.4,288.172c18.197,17.253,39.893,29.855,58.109,46.913
						c7.919,7.417,14.055,16.366,21.581,24.14c15.663,16.176,31.071,18.577,52.163,20.499c2.403,0.219,2.778,4.261,0.394,4.831
						c-23.49,5.619-45.172-7.039-60.234-24.382c-13.135-15.124-25.7-27.104-41.407-39.215c-12.256-9.45-23.67-18.524-31.179-32.266
						C-104.167,288.335-103.748,287.842-103.4,288.172z"/>
					<path style="fill:#080E3A;" d="M-123.009,313.494c23.434,51.12,70.958,73.706,126.077,64.323
						c3.555-0.605,4.046,5.077,0.458,5.614c-51.947,7.769-113.528-13.549-128-69.402
						C-124.726,313.06-123.431,312.574-123.009,313.494z"/>
					<path style="fill:#080E3A;" d="M-72.358,413.818c18.224-14.093,37.545-26.03,59.268-33.906c2.58-0.935,3.974,3.319,1.428,3.908
						c-22.48,5.203-41.141,18.385-60.548,30.211C-72.352,414.118-72.492,413.921-72.358,413.818z"/>
					<path style="fill:#080E3A;" d="M-109.872,370.05c20.163,1.205,46.394,18.68,65.958,7.797c2.29-1.274,4.669,2.055,2.36,3.374
						c-20.905,11.94-47.826-7.538-68.35-11C-110.018,370.202-109.98,370.044-109.872,370.05z"/>
					<path style="fill:#080E3A;" d="M-98.553,384.785c12.09,2.454,24.926,5.066,35.847-2.39c0.854-0.583,1.755,0.709,0.919,1.314
						c-11.28,8.161-24.443,5.189-36.799,1.246C-98.688,384.922-98.666,384.762-98.553,384.785z"/>
					<path style="fill:#080E3A;" d="M-62.385,287.838c15.105,15.461,21.2,36.79,24.181,57.62c0.197,1.378-1.975,1.557-2.16,0.176
						c-2.966-22.212-10.308-38.725-22.434-57.419C-62.964,287.958-62.618,287.599-62.385,287.838z"/>
					<path style="fill:#080E3A;" d="M93.539,369.467c36.067-14.585,64.276-40.93,84.663-73.731c0.13-0.209,0.455-0.067,0.352,0.169
						c-11.814,27.019-32.089,49.284-56.78,65.251c-11.78,7.618-24.526,13.746-37.925,17.921
						c-18.69,5.823-54.634,5.689-53.977,32.597c0.058,2.383-3.624,2.711-3.714,0.303C24.906,378.57,71.331,378.448,93.539,369.467z"
						/>
					<path style="fill:#080E3A;" d="M71.407,377.536c31.281,2.407,66.725,12.193,91.603-13.345c0.252-0.259,0.653,0.076,0.429,0.364
						c-22.086,28.433-61.758,20.566-92.728,16.642C68.3,380.892,69.063,377.356,71.407,377.536z"/>
					<path style="fill:#080E3A;" d="M65.43,380.64c5.002,3.796,7.266,9.638,10.868,14.616c4.949,6.842,12.279,14.701,21.459,14.318
						c0.366-0.015,0.401,0.503,0.046,0.561c-7.279,1.207-13.094-2.257-18.177-7.26c-6.042-5.944-9.332-15.031-16.13-19.958
						C61.942,381.794,63.895,379.474,65.43,380.64z"/>
					<path style="fill:#080E3A;" d="M73.763,375.566c5.226-5.498,6.465-10.875,6.558-18.314c0.046-3.665,0.63-7.362,1.758-10.851
						c2.056-6.361,5.851-11.152,10.852-15.44c0.078-0.066,0.173,0.053,0.116,0.127c-7.42,9.677-8.859,19.701-8.384,31.497
						c0.279,6.931-3.264,11.432-8.238,15.905C74.745,380,72.214,377.194,73.763,375.566z"/>
					<path style="fill:#080E3A;" d="M128.753,349.838c6.766-11.323,6.015-24.115,8.788-36.593
						c2.335-10.509,7.012-19.643,13.649-28.051c0.15-0.19,0.485,0.018,0.36,0.234c-7.186,12.449-10.774,25.414-12.021,39.672
						c-0.857,9.801-2.115,18.491-7.64,26.775C130.713,353.638,127.655,351.676,128.753,349.838z"/>
					<path style="fill:#080E3A;" d="M60.585,317.538c10.945-10.856,22.941-20.594,33.702-31.645
						c13.616-13.983,23.006-30.281,33.529-46.57c0.117-0.181,0.415-0.056,0.313,0.15c-6.604,13.273-12.942,26.599-21.986,38.432
						c-8.858,11.59-19.466,21.663-29.761,31.942c-22.453,22.418-42.69,45.066-45.219,78.066c-0.259,3.383-5.855,3.05-5.961-0.317
						C24.334,360.105,41.941,336.028,60.585,317.538z"/>
					<path style="fill:#080E3A;" d="M87.285,268.941c0.075-0.108,0.219,0.01,0.18,0.117c-6.49,17.719-23.179,29.514-24.302,49.48
						c-0.107,1.91-3.18,1.397-2.981-0.566C62.117,298.929,76.873,284.043,87.285,268.941z"/>
					<path style="fill:#080E3A;" d="M43.866,340.806c10.572-10.764,28.084-12.147,40.894-19.745
						c16.393-9.725,28.019-23.33,38.61-38.867c0.116-0.17,0.358,0.015,0.288,0.187c-5.772,14.264-16.084,26.551-28.184,35.953
						c-5.587,4.341-11.623,8.067-18.004,11.125c-9.951,4.77-22.235,6.199-30.433,14.039
						C45.134,345.319,41.969,342.739,43.866,340.806z"/>
					<path style="fill:#080E3A;" d="M39.336,317.116c2.546-11.696,8.472-22.03,11.667-33.506c0.084-0.301,0.486-0.214,0.468,0.089
						c-0.6,10.394-4.63,19.884-6.905,29.953c-2.558,11.323-3.108,22.635-2.655,34.227c0.104,2.668-3.861,3.011-4.146,0.338
						C36.653,337.812,37.107,327.354,39.336,317.116z"/>
					<path style="fill:#080E3A;" d="M-112.647,206.365c8.829,17.849,24.572,31.699,43.656,37.568
						c15.83,4.869,32.771,3.691,48.204,10.163c2.987,1.252,0.809,5.601-2.157,4.493c-19.917-7.442-41.704-5.335-60.438-16.444
						c-13.92-8.254-23.454-20.887-29.51-35.691C-112.955,206.296-112.719,206.219-112.647,206.365z"/>
					<path style="fill:#080E3A;" d="M-46.34,277.523c15.283,8.036,27.85,19.727,37.801,33.827c4.998,7.081,9.158,14.71,12.53,22.69
						c2.109,4.99,3.479,10.397,6.4,15.016c2.923,4.623,7.472,7.532,11.198,11.413c1.109,1.156,0.745,3.424-1.128,3.506
						c-15.198,0.664-19.601-21.129-23.823-31.726c-8.902-22.34-24.474-39.595-43.423-54.041
						C-47.155,277.925-46.754,277.305-46.34,277.523z"/>
					<path style="fill:#080E3A;" d="M-33.239,318.272c5.48-1.44,10.716-1.5,15.987,0.823c6.253,2.756,10.138,9.767,16.904,11.268
						c2.528,0.561,1.693,4.628-0.744,3.917c-4.439-1.293-7.214-4.027-10.238-7.398c-5.716-6.374-13.115-9.944-21.818-8.191
						C-33.384,318.739-33.475,318.334-33.239,318.272z"/>
					<path style="fill:#080E3A;" d="M1.451,334.774c0.092,0.171,0.183,0.341,0.275,0.511c0.815,1.52,2.837,0.856,3.555-0.29
						c6.694-10.693,1.2-24.065-2.396-34.89c-0.069-0.208-0.404-0.135-0.378,0.083c1.341,11.213,4.574,21.343-0.454,31.875
						c-0.069,0.058-0.152,0.085-0.212,0.162c-0.096,0.124-0.192,0.248-0.288,0.372C1.022,333.281,1.055,334.035,1.451,334.774z"/>
					<path style="fill:#080E3A;" d="M-19.249,283.299c-0.071-0.097,0.073-0.236,0.159-0.145
						c7.605,8.068,14.961,17.269,10.439,28.876c-0.654,1.679-3.249,0.459-2.54-1.219C-7.007,300.919-13.56,291.068-19.249,283.299z"
						/>
					<path style="fill:#080E3A;" d="M-38.576,293.131c4.677,3.911,10.246,5.983,16.348,4.834c2.001-0.377,2.323,2.909,0.261,3.196
						c-6.575,0.914-13.642-1.751-16.926-7.741C-39.005,293.216-38.777,292.963-38.576,293.131z"/>
					<path style="fill:#080E3A;" d="M-109.214,234.152c5.873,5.695,12.767,10.114,20.752,12.169
						c8.034,2.067,15.188-0.042,23.177,0.024c1.972,0.016,2.222,3.111,0.25,3.066c-9.337-0.214-17.304,1.858-26.444-1.371
						c-7.411-2.617-13.443-7.294-17.926-13.715C-109.487,234.208-109.323,234.047-109.214,234.152z"/>
					<path style="fill:#080E3A;" d="M-83.166,195.003c9.084,10.859,19.027,20.794,29.018,30.789
						c6.87,6.872,9.584,14.485,12.378,23.722c0.326,1.08-1.271,2.091-1.868,0.973c-1.953-3.663-2.671-7.468-4.172-11.316
						c-2.98-7.641-8.756-12.415-14.346-18.066c-7.945-8.03-14.948-16.563-21.543-25.731
						C-83.947,195.03-83.43,194.686-83.166,195.003z"/>
					<path style="fill:#080E3A;" d="M-85.074,148.444c6.509,22.793,11.222,45.786,32.504,59.359c2.251,1.436,0.756,4.787-1.82,3.79
						c-22.461-8.699-30.033-41.777-31.649-62.937C-86.08,148.112-85.232,147.889-85.074,148.444z"/>
					<path style="fill:#080E3A;" d="M-30.845,204.024c-3.652-14.874-7.481-29.725-11.58-44.482
						c-0.059-0.213,0.263-0.334,0.326-0.119c4.473,15.292,9.76,30.339,14.151,45.651c4.076,14.215-1.775,27.646,1.415,41.732
						c0.709,3.129-3.934,4.066-4.237,0.929C-32.214,232.772-27.176,218.972-30.845,204.024z"/>
					<path style="fill:#080E3A;" d="M24.604,308.816c5.7-24.414,21.243-41.197,42.687-53.167
						c12.714-7.097,25.842-13.443,36.177-23.989c11.621-11.858,19.877-26.772,28.588-40.782c0.131-0.21,0.446-0.069,0.352,0.169
						c-9.654,24.262-21.746,45.632-44.619,59.48c-11.222,6.794-23.565,12.003-34.071,19.935
						c-13.728,10.363-19.891,23.825-25.684,39.481C27.318,311.877,24.138,310.812,24.604,308.816z"/>
					<path style="fill:#080E3A;" d="M76.476,224.059c10.541-10.789,23.293-19.125,31.372-32.162c0.174-0.28,0.601-0.089,0.469,0.225
						c-4.737,11.264-13.152,18.984-21.878,27.239c-12.669,11.985-19.632,23.093-21.768,40.837c-0.291,2.419-3.946,1.69-3.704-0.703
						C62.408,245.204,66.368,234.404,76.476,224.059z"/>
					<path style="fill:#080E3A;" d="M25.684,236.1c16.828-10.664,33.727-15.442,47.092-31.583
						c13.646-16.479,21.498-36.629,30.297-55.883c0.079-0.174,0.383-0.085,0.327,0.107c-5.874,20.047-12.961,40.201-25.723,57.017
						c-5.463,7.199-11.963,13.753-19.43,18.889c-9.298,6.396-20.236,9.483-29.732,15.501
						C25.833,241.848,22.995,237.804,25.684,236.1z"/>
					<path style="fill:#080E3A;" d="M22.422,256.423c2.704-5.367,6.461-11.124,12.193-13.569c3.252-1.387,6.751-1.342,10.182-1.995
						c5.761-1.096,10.64-3.797,14.77-8.036c0.207-0.212,0.653,0.018,0.469,0.305c-3.014,4.703-6.84,8.265-12.216,10.151
						c-2.909,1.02-6.032,1.13-8.976,2.007c-6.737,2.006-9.431,7.242-12.984,12.787C24.577,260.076,21.284,258.681,22.422,256.423z"
						/>
					<path style="fill:#080E3A;" d="M23.751,198.499c4.161-4.37,8.931-7.169,13.996-10.391c8.928-5.678,15.59-12.529,21.287-21.413
						c9.618-15,17.352-31.394,25.579-47.188c0.272-0.522,1.042-0.147,0.82,0.394c-7.276,17.781-14.819,36.507-25.579,52.513
						c-8.776,13.054-21.494,19.445-33.76,28.658C24.52,202.256,22.365,199.955,23.751,198.499z"/>
					<path style="fill:#080E3A;" d="M60.467,132.17c0.218-0.328,0.762,0.03,0.577,0.374c-8.24,15.364-8.38,29.097-7.464,45.969
						c0.082,1.508-2.214,2.137-2.684,0.589C46.159,163.52,51.755,145.266,60.467,132.17z"/>
					<path style="fill:#080E3A;" d="M74.848,174.835c0.08-0.075,0.202,0.022,0.132,0.112c-5.311,6.899-9.842,14.162-13.186,22.216
						c-3.371,8.121-4.115,16.54-6.776,24.749c-0.377,1.165-2.136,1.266-2.273-0.121C51.079,204.873,63.079,185.92,74.848,174.835z"
						/>
					<path style="fill:#080E3A;" d="M-18.733,98.211c0.028-0.622,0.982-0.736,0.993-0.081c0.62,38.352,7.745,87.589,38.341,114.264
						c2.208,1.925-0.733,5.396-2.945,3.468C-14.271,188.025-20.524,138.018-18.733,98.211z"/>
					<path style="fill:#080E3A;" d="M-0.051,191.87c2.721-12.472,6.439-23.814,2.981-36.633c-2.182-8.09-4.289-15.23-4.707-23.718
						c-0.032-0.643,0.907-0.715,0.993-0.081c1.455,10.716,6.508,20.462,7.866,31.058c1.279,9.98-1.638,20.332-3.556,30.053
						C3.073,194.845-0.551,194.164-0.051,191.87z"/>
					<path style="fill:#080E3A;" d="M-29.983,159.43c4.44,9.313,8.756,18.538,12.095,28.315
						c3.549,10.393,4.944,22.498,11.168,31.735c9.065,13.454,20.733,20.813,26.086,36.908c0.853,2.566-2.985,3.976-3.949,1.443
						c-3.966-10.426-9.411-18.289-16.955-26.384c-3.98-4.27-8.079-8.39-10.782-13.649c-4.514-8.781-5.663-19.577-8.455-28.998
						c-2.908-9.814-6.155-19.599-10.062-29.058C-31.065,159.192-30.231,158.91-29.983,159.43z"/>
					<path style="fill:#080E3A;" d="M-11.705,237.485c3.179,3.688,4.353,7.881,6.897,11.968c3.115,5.006,7.6,8.004,12.343,11.281
						c6.273,4.332,13.252,9.088,15.04,16.959c0.547,2.411-2.607,3.678-3.664,1.339c-4.313-9.545-12.23-13.432-19.549-20.171
						c-6.642-6.115-7.508-13.286-11.564-21.027C-12.382,237.488-11.964,237.184-11.705,237.485z"/>
					<path style="fill:#080E3A;" d="M-22.466,202.517c2.402,6.098,5.087,11.12,10.141,15.458c2.588,2.221,5.239,4.225,7.528,6.649
						c0.395-7.358-0.809-14.114-1.528-21.593c-0.032-0.332,0.446-0.523,0.629-0.227c4.646,7.502,4.807,17.511,3.623,26.001
						c-0.179,1.284-2.011,1.632-2.711,0.581c-3.348-5.023-8.721-7.836-12.65-12.308c-3.476-3.955-6.038-8.957-6.669-14.203
						C-24.219,201.909-22.809,201.648-22.466,202.517z"/>
					<path style="fill:#080E3A;" d="M12.206,42.759c0.068-0.3,0.507-0.215,0.468,0.089c-3.891,30.341,0.173,58.668,11.973,86.807
						c0.84,2.004-2.237,3.062-3.135,1.146C8.656,103.352,5.514,72.241,12.206,42.759z"/>
					<path style="fill:#080E3A;" d="M25.622,144.672c18.922-27.712,26.337-59.619,24.744-92.903
						c-0.016-0.338,0.465-0.37,0.518-0.042c5.483,33.725-3.434,67.318-22.19,95.553C27.266,149.429,24.165,146.805,25.622,144.672z"
						/>
					<path style="fill:#080E3A;" d="M37.237,123.939c11.021-9.239,20.581-16.639,24.358-31.167
						c2.373-9.128,3.449-18.077,7.965-26.497c0.136-0.252,0.476-0.071,0.391,0.188c-3.935,11.956-3.676,25.31-8.844,36.841
						c-4.477,9.988-13.812,16.553-21.834,23.547C37.559,128.346,35.487,125.407,37.237,123.939z"/>
					<path style="fill:#080E3A;" d="M66.415,157.362c9.41-0.118,14.112-8.218,18.629-15.232c3.546-5.506,7.309-10.858,10.944-16.305
						c0.096-0.143,0.334,0.014,0.252,0.164c-4.432,8.201-8.348,16.901-13.605,24.622c-3.831,5.627-8.908,9.906-15.949,10.075
						C64.544,160.739,64.268,157.388,66.415,157.362z"/>
					<path style="fill:#080E3A;" d="M82.095,195.362c6.66-1.349,11.731-3.859,14.652-10.365c1.691-3.767,2.904-7.487,6.441-9.922
						c0.12-0.082,0.274,0.079,0.173,0.191c-4.049,4.515-3.82,11.222-7.681,15.96c-3.147,3.861-8.29,6.94-13.375,6.729
						C80.631,197.884,80.442,195.697,82.095,195.362z"/>
					<path style="fill:#080E3A;" d="M107.952,230.93c4.861-1.838,8.641-3.551,12.195-7.575c3.016-3.414,5.374-7.404,7.959-11.142
						c0.164-0.237,0.485,0.022,0.396,0.257c-3.129,8.326-9.656,20.486-20.081,20.598C107.208,233.083,106.738,231.39,107.952,230.93
						z"/>
					<path style="fill:#080E3A;" d="M100.196,281.137c5.696-4.767,14.614-3.68,19.481-9.439c4.25-5.028,5.032-11.864,9.817-16.624
						c0.08-0.08,0.252,0.006,0.18,0.117c-3.766,5.822-3.998,13.422-8.488,18.827c-4.937,5.943-13.408,5.083-19.027,9.923
						C100.494,285.376,98.512,282.547,100.196,281.137z"/>
					<path style="fill:#080E3A;" d="M-34.763,115.009c0.045-0.249,0.394-0.212,0.429,0.023c1.718,11.461,4.665,20.744,10.402,30.867
						c3.046,5.375,5.267,5.775,9.721,10.559c1.383,1.485,2.17,3.688,3.566,5.102c1.269,1.285-0.563,3.446-1.823,2.147
						c-6.322-6.516-10.948-11.216-15.258-19.48C-32.375,135.312-36.611,125.211-34.763,115.009z"/>
				</g>
			</g>
			<g style="clip-path:url(#SVGID_00000005967843472748437170000000517369255731842218_);">
				<g>
					<path style="fill:#080E3A;" d="M716.072,422.528c9.979,11.176,17.574,24.409,22.208,38.657
						c4.738,14.569,6.255,30.13,4.5,45.346c-0.999,8.659-3.024,17.179-6.068,25.348c-0.296,0.795-1.584,0.463-1.285-0.339
						c5.357-14.375,7.565-29.853,6.453-45.153c-1.083-14.902-5.411-29.509-12.517-42.647c-3.937-7.278-8.709-14.09-14.22-20.262
						C714.575,422.843,715.502,421.89,716.072,422.528z"/>
					<path style="fill:#080E3A;" d="M702.916,438.847c10.311,3.555,19.945,8.927,28.378,15.845c2.074,1.702,4.064,3.502,5.979,5.38
						c1.857-11.52,3.715-23.04,5.572-34.56c0.136-0.845,1.42-0.499,1.285,0.339l-5.766,35.764c-0.081,0.503-0.779,0.636-1.107,0.306
						c-7.524-7.581-16.363-13.799-26.047-18.309c-2.815-1.311-5.697-2.468-8.633-3.48
						C701.772,439.854,702.105,438.568,702.916,438.847z"/>
					<path style="fill:#080E3A;" d="M705.171,462.782c11.47,4.227,22.032,10.783,30.89,19.212c2.352,2.238,4.569,4.612,6.661,7.094
						c7.06-11.144,13.093-22.939,17.934-35.212c1.393-3.532,2.687-7.103,3.888-10.705c0.27-0.808,1.556-0.474,1.285,0.339
						c-4.291,12.867-9.807,25.322-16.483,37.13c-1.895,3.353-3.885,6.651-5.961,9.895c-0.208,0.326-0.753,0.499-1.043,0.148
						c-7.684-9.289-17.238-16.96-27.975-22.444c-3.093-1.58-6.277-2.971-9.535-4.172
						C704.035,463.773,704.367,462.486,705.171,462.782z"/>
				</g>
				<g>
					<path style="fill:#F8C9C8;" d="M773.723,442.214c-1.327,4.621-6.149,7.29-10.769,5.963c-4.621-1.327-7.29-6.149-5.963-10.77
						c1.327-4.621,6.149-7.29,10.769-5.963C772.381,432.772,775.05,437.594,773.723,442.214z"/>
					<path style="fill:#9996BF;" d="M770.629,443.928c-0.946,3.293-4.382,5.195-7.675,4.25c-3.293-0.946-5.195-4.382-4.25-7.675
						c0.946-3.293,4.382-5.195,7.675-4.25C769.672,437.199,771.574,440.635,770.629,443.928z"/>
				</g>
				<g>
					<path style="fill:#F8C9C8;" d="M753.245,425.044c-1.327,4.621-6.149,7.29-10.77,5.963c-4.621-1.327-7.29-6.149-5.963-10.77
						c1.327-4.621,6.149-7.29,10.769-5.963C751.903,415.602,754.572,420.423,753.245,425.044z"/>
					<path style="fill:#9996BF;" d="M750.151,426.758c-0.946,3.293-4.382,5.195-7.675,4.25c-3.293-0.946-5.195-4.382-4.25-7.675
						c0.946-3.293,4.382-5.195,7.675-4.25C749.194,420.029,751.096,423.465,750.151,426.758z"/>
				</g>
				<g>
					<path style="fill:#F8C9C8;" d="M723.945,415.94c1.622,4.525-0.731,9.509-5.256,11.132c-4.525,1.622-9.509-0.731-11.132-5.256
						c-1.622-4.525,0.731-9.509,5.256-11.132C717.339,409.061,722.323,411.414,723.945,415.94z"/>
					<path style="fill:#9996BF;" d="M722.435,419.139c1.156,3.225-0.521,6.777-3.746,7.933c-3.225,1.156-6.777-0.521-7.933-3.746
						c-1.156-3.225,0.521-6.777,3.746-7.933C717.727,414.237,721.278,415.914,722.435,419.139z"/>
				</g>
				<g>
					<path style="fill:#F8C9C8;" d="M742.044,444.42c-0.026,4.807-3.943,8.684-8.751,8.658c-4.807-0.026-8.684-3.944-8.658-8.751
						c0.026-4.807,3.944-8.684,8.751-8.658C738.194,435.694,742.07,439.612,742.044,444.42z"/>
					<path style="fill:#9996BF;" d="M739.53,446.908c-0.018,3.426-2.81,6.188-6.236,6.17c-3.426-0.018-6.188-2.81-6.17-6.236
						c0.018-3.426,2.81-6.188,6.236-6.17C736.786,440.69,739.548,443.482,739.53,446.908z"/>
				</g>
				<g>
					<path style="fill:#F8C9C8;" d="M762.194,465.409c-2.469,4.125-7.814,5.468-11.939,2.999c-4.125-2.469-5.468-7.814-2.999-11.939
						c2.469-4.125,7.814-5.467,11.939-2.999C763.321,455.938,764.663,461.284,762.194,465.409z"/>
					<path style="fill:#9996BF;" d="M758.763,466.27c-1.759,2.94-5.569,3.896-8.508,2.137c-2.94-1.759-3.896-5.569-2.137-8.509
						c1.76-2.94,5.569-3.896,8.509-2.137C759.566,459.521,760.523,463.331,758.763,466.27z"/>
				</g>
				<g>
					<path style="fill:#F8C9C8;" d="M728.822,465.04c3.998,2.671,5.073,8.076,2.403,12.073c-2.671,3.997-8.076,5.073-12.074,2.402
						c-3.997-2.671-5.073-8.076-2.402-12.073C719.419,463.445,724.824,462.369,728.822,465.04z"/>
					<path style="fill:#9996BF;" d="M729.512,468.509c2.849,1.903,3.615,5.755,1.712,8.604c-1.903,2.849-5.755,3.615-8.604,1.712
						c-2.849-1.903-3.615-5.755-1.712-8.604C722.811,467.372,726.663,466.606,729.512,468.509z"/>
				</g>
				<g>
					
						<ellipse transform="matrix(0.4341 -0.9009 0.9009 0.4341 2.9835 879.0069)" style="fill:#F8C9C8;" cx="701.132" cy="437.129" rx="8.705" ry="8.705"/>
					<path style="fill:#9996BF;" d="M706.735,433.477c2.808,1.963,3.494,5.83,1.531,8.638c-1.963,2.808-5.83,3.493-8.638,1.531
						c-2.808-1.963-3.494-5.83-1.531-8.638C700.06,432.2,703.927,431.514,706.735,433.477z"/>
				</g>
				<g>
					<path style="fill:#F8C9C8;" d="M700.968,453.736c4.748,0.752,7.988,5.211,7.235,9.959c-0.752,4.748-5.211,7.988-9.959,7.236
						c-4.748-0.752-7.988-5.211-7.236-9.959C691.761,456.223,696.22,452.984,700.968,453.736z"/>
					<path style="fill:#9996BF;" d="M703.048,456.598c3.384,0.536,5.692,3.714,5.156,7.098c-0.536,3.384-3.714,5.692-7.097,5.156
						c-3.384-0.536-5.692-3.714-5.156-7.097C696.486,458.37,699.664,456.062,703.048,456.598z"/>
				</g>
			</g>
			<g style="clip-path:url(#SVGID_00000005967843472748437170000000517369255731842218_);">
				<g>
					<path style="fill:#080E3A;" d="M644.313,479.103c14.055,5.191,26.968,13.317,37.742,23.728
						c11.017,10.646,19.654,23.679,25.24,37.941c3.179,8.117,5.385,16.591,6.527,25.234c0.111,0.841-1.182,1.152-1.294,0.303
						c-2.01-15.208-7.318-29.914-15.475-42.907c-7.945-12.654-18.618-23.526-31.054-31.797c-6.89-4.582-14.299-8.36-22.061-11.228
						C643.138,480.083,643.51,478.806,644.313,479.103z"/>
					<path style="fill:#080E3A;" d="M640.345,499.686c10.774-1.696,21.802-1.468,32.495,0.687c2.63,0.53,5.232,1.188,7.804,1.948
						c-3.762-11.046-7.524-22.092-11.286-33.138c-0.276-0.81,1.02-1.107,1.294-0.303l11.679,34.291
						c0.164,0.482-0.39,0.927-0.835,0.789c-10.201-3.168-20.923-4.514-31.591-3.956c-3.101,0.162-6.189,0.492-9.257,0.975
						C639.807,501.112,639.498,499.819,640.345,499.686z"/>
					<path style="fill:#080E3A;" d="M653.561,519.768c12.113-1.645,24.516-0.808,36.292,2.482c3.127,0.874,6.199,1.931,9.21,3.142
						c1.01-13.153,0.806-26.4-0.673-39.51c-0.426-3.773-0.958-7.533-1.586-11.278c-0.141-0.841,1.152-1.149,1.294-0.303
						c2.244,13.377,3.213,26.964,2.854,40.524c-0.102,3.85-0.313,7.696-0.625,11.535c-0.031,0.385-0.432,0.794-0.852,0.62
						c-11.143-4.6-23.178-6.895-35.233-6.704c-3.472,0.055-6.937,0.319-10.378,0.786
						C653.023,521.176,652.713,519.883,653.561,519.768z"/>
				</g>
				<g>
					<path style="fill:#F8C9C8;" d="M704.463,469.455c0.995,4.704-2.012,9.323-6.716,10.317c-4.703,0.995-9.323-2.012-10.317-6.715
						c-0.995-4.703,2.012-9.323,6.716-10.317C698.849,461.745,703.469,464.751,704.463,469.455z"/>
					<path style="fill:#9996BF;" d="M702.533,472.419c0.709,3.352-1.434,6.644-4.786,7.352c-3.352,0.709-6.644-1.434-7.352-4.786
						c-0.709-3.352,1.434-6.644,4.786-7.352C698.533,466.925,701.825,469.067,702.533,472.419z"/>
				</g>
				<g>
					<path style="fill:#F8C9C8;" d="M678.324,463.893c0.995,4.703-2.012,9.323-6.716,10.317c-4.703,0.995-9.323-2.012-10.317-6.716
						c-0.995-4.703,2.012-9.322,6.715-10.317C672.711,456.183,677.33,459.189,678.324,463.893z"/>
					<path style="fill:#9996BF;" d="M676.395,466.858c0.709,3.352-1.434,6.644-4.786,7.352c-3.352,0.709-6.644-1.434-7.352-4.786
						s1.434-6.644,4.786-7.353C672.394,461.363,675.686,463.506,676.395,466.858z"/>
				</g>
				<g>
					<path style="fill:#F8C9C8;" d="M648.176,469.592c3.555,3.236,3.814,8.741,0.578,12.297c-3.236,3.555-8.741,3.814-12.297,0.578
						c-3.555-3.236-3.814-8.741-0.578-12.297C639.116,466.615,644.621,466.356,648.176,469.592z"/>
					<path style="fill:#9996BF;" d="M648.342,473.125c2.534,2.306,2.718,6.229,0.412,8.763c-2.306,2.534-6.229,2.718-8.763,0.412
						c-2.534-2.306-2.718-6.23-0.412-8.763C641.885,471.004,645.809,470.819,648.342,473.125z"/>
				</g>
				<g>
					<path style="fill:#F8C9C8;" d="M677.518,486.258c2.232,4.258,0.589,9.519-3.669,11.751c-4.258,2.232-9.519,0.589-11.751-3.669
						c-2.232-4.258-0.589-9.519,3.669-11.751C670.025,480.358,675.286,482,677.518,486.258z"/>
					<path style="fill:#9996BF;" d="M676.464,489.635c1.59,3.034,0.42,6.784-2.615,8.374c-3.034,1.591-6.784,0.42-8.374-2.615
						c-1.591-3.034-0.42-6.784,2.615-8.374C671.124,485.43,674.873,486.6,676.464,489.635z"/>
				</g>
				<g>
					
						<ellipse transform="matrix(0.7478 -0.6639 0.6639 0.7478 -152.9308 587.1923)" style="fill:#F8C9C8;" cx="696.464" cy="494.901" rx="8.705" ry="8.705"/>
					<path style="fill:#9996BF;" d="M702.531,497.717c-0.175,3.422-3.091,6.053-6.513,5.877c-3.422-0.175-6.053-3.091-5.878-6.513
						c0.175-3.422,3.091-6.053,6.513-5.878C700.075,491.379,702.707,494.295,702.531,497.717z"/>
				</g>
				<g>
					<path style="fill:#F8C9C8;" d="M675.509,510.671c4.783,0.484,8.268,4.754,7.784,9.537c-0.484,4.783-4.754,8.268-9.537,7.784
						c-4.783-0.484-8.268-4.754-7.784-9.537C666.456,513.672,670.726,510.187,675.509,510.671z"/>
					<path style="fill:#9996BF;" d="M677.746,513.412c3.409,0.345,5.892,3.388,5.547,6.796c-0.345,3.409-3.388,5.892-6.797,5.547
						c-3.409-0.345-5.892-3.388-5.547-6.797C671.294,515.55,674.337,513.067,677.746,513.412z"/>
				</g>
				<g>
					<path style="fill:#F8C9C8;" d="M639.022,490.365c4.772,0.585,8.166,4.927,7.582,9.698c-0.585,4.772-4.927,8.166-9.698,7.582
						c-4.772-0.585-8.166-4.927-7.582-9.698C629.908,493.175,634.25,489.78,639.022,490.365z"/>
					<path style="fill:#9996BF;" d="M641.201,493.152c3.401,0.417,5.82,3.511,5.403,6.911c-0.417,3.401-3.511,5.82-6.912,5.403
						c-3.401-0.416-5.82-3.511-5.403-6.911C634.706,495.154,637.8,492.735,641.201,493.152z"/>
				</g>
				<g>
					<path style="fill:#F8C9C8;" d="M645.607,513.749c4.547-1.562,9.499,0.857,11.061,5.403c1.562,4.547-0.857,9.499-5.403,11.061
						c-4.547,1.562-9.499-0.857-11.061-5.403C638.642,520.264,641.061,515.312,645.607,513.749z"/>
					
						<ellipse transform="matrix(0.4331 -0.9013 0.9013 0.4331 -100.8171 882.0402)" style="fill:#9996BF;" cx="650.802" cy="521.168" rx="6.203" ry="6.203"/>
				</g>
			</g>
			<g style="clip-path:url(#SVGID_00000005967843472748437170000000517369255731842218_);">
				<g>
					<path style="fill:#080E3A;" d="M41.303,436.57c-11.961,9.023-21.984,20.526-29.299,33.601
						c-7.48,13.37-11.994,28.339-13.231,43.606c-0.704,8.688-0.374,17.439,1.024,26.044c0.136,0.837,1.464,0.762,1.326-0.083
						c-2.46-15.142-1.616-30.754,2.449-45.546c3.959-14.407,11.045-27.894,20.569-39.4c5.277-6.374,11.282-12.128,17.888-17.111
						C42.71,437.17,41.986,436.055,41.303,436.57z"/>
					<path style="fill:#080E3A;" d="M51.036,455.135c-10.806,1.482-21.3,4.879-30.918,10.026c-2.365,1.266-4.667,2.645-6.911,4.115
						c0.418-11.661,0.836-23.323,1.254-34.984c0.031-0.855-1.296-0.766-1.326,0.083l-1.298,36.202
						c-0.018,0.509,0.641,0.775,1.027,0.515c8.855-5.974,18.734-10.354,29.109-12.895c3.016-0.739,6.068-1.313,9.145-1.735
						C51.962,456.346,51.885,455.019,51.036,455.135z"/>
					<path style="fill:#080E3A;" d="M44.17,478.175c-12.073,1.917-23.708,6.294-34.036,12.839c-2.743,1.738-5.379,3.636-7.914,5.664
						c-4.759-12.304-8.383-25.047-10.745-38.027c-0.68-3.736-1.255-7.49-1.733-11.256c-0.107-0.845-1.434-0.768-1.326,0.083
						c1.708,13.456,4.697,26.745,8.949,39.626c1.207,3.657,2.518,7.279,3.923,10.865c0.141,0.36,0.642,0.635,0.995,0.348
						c9.344-7.617,20.207-13.284,31.805-16.576c3.341-0.948,6.734-1.694,10.164-2.239C45.091,479.369,45.015,478.041,44.17,478.175z
						"/>
				</g>
				<g>
					<path style="fill:#F8C9C8;" d="M-19.075,444.672c0.403,4.79,4.614,8.347,9.405,7.943c4.791-0.404,8.347-4.614,7.943-9.405
						c-0.404-4.79-4.614-8.347-9.405-7.943C-15.923,435.671-19.479,439.881-19.075,444.672z"/>
					<path style="fill:#9996BF;" d="M-16.373,446.954c0.288,3.414,3.288,5.948,6.702,5.661s5.948-3.288,5.661-6.702
						c-0.288-3.414-3.288-5.948-6.702-5.661S-16.66,443.54-16.373,446.954z"/>
				</g>
				<g>
					<path style="fill:#F8C9C8;" d="M4.35,431.811c0.404,4.79,4.614,8.347,9.405,7.943c4.79-0.404,8.347-4.614,7.943-9.405
						c-0.403-4.79-4.614-8.347-9.405-7.943C7.503,422.81,3.947,427.02,4.35,431.811z"/>
					<path style="fill:#9996BF;" d="M7.053,434.093c0.288,3.414,3.288,5.948,6.702,5.661s5.948-3.288,5.661-6.702
						c-0.288-3.414-3.288-5.948-6.702-5.661C9.299,427.679,6.765,430.679,7.053,434.093z"/>
				</g>
				<g>
					<path style="fill:#F8C9C8;" d="M34.861,428.577c-2.471,4.124-1.132,9.47,2.992,11.941c4.124,2.471,9.47,1.132,11.941-2.992
						c2.471-4.123,1.132-9.47-2.992-11.941C42.679,423.114,37.333,424.453,34.861,428.577z"/>
					<path style="fill:#9996BF;" d="M35.721,432.008c-1.761,2.939-0.807,6.749,2.132,8.51c2.939,1.761,6.749,0.807,8.51-2.132
						c1.761-2.939,0.807-6.749-2.132-8.51C41.292,428.115,37.482,429.07,35.721,432.008z"/>
				</g>
				<g>
					<path style="fill:#F8C9C8;" d="M11.57,452.994c-0.91,4.721,2.18,9.285,6.901,10.194c4.721,0.91,9.285-2.18,10.194-6.901
						c0.91-4.721-2.18-9.285-6.901-10.194C17.044,445.184,12.479,448.274,11.57,452.994z"/>
					<path style="fill:#9996BF;" d="M13.553,455.924c-0.648,3.364,1.554,6.617,4.918,7.265c3.364,0.648,6.617-1.554,7.265-4.918
						c0.648-3.364-1.554-6.617-4.918-7.265C17.454,450.358,14.201,452.56,13.553,455.924z"/>
				</g>
				<g>
					
						<ellipse transform="matrix(0.4275 -0.904 0.904 0.4275 -424.2676 263.5124)" style="fill:#F8C9C8;" cx="-4.08" cy="466.732" rx="8.705" ry="8.705"/>
					<path style="fill:#9996BF;" d="M-9.078,471.177c1.154,3.226,4.705,4.905,7.931,3.75c3.226-1.154,4.905-4.705,3.75-7.931
						c-1.154-3.226-4.705-4.905-7.931-3.751C-8.553,464.401-10.233,467.952-9.078,471.177z"/>
				</g>
				<g>
					<circle style="fill:#F8C9C8;" cx="23.867" cy="483.832" r="8.705"/>
					<path style="fill:#9996BF;" d="M19.18,479.06c-3.164,1.313-4.665,4.943-3.352,8.107c1.313,3.164,4.943,4.665,8.107,3.352
						c3.164-1.313,4.665-4.943,3.352-8.107C25.974,479.248,22.344,477.747,19.18,479.06z"/>
				</g>
				<g>
					<path style="fill:#F8C9C8;" d="M49.616,445.829c-4.401,1.935-6.399,7.072-4.464,11.472c1.935,4.401,7.072,6.399,11.472,4.464
						c4.401-1.935,6.399-7.072,4.464-11.472C59.153,445.892,54.016,443.893,49.616,445.829z"/>
					<path style="fill:#9996BF;" d="M48.333,449.125c-3.136,1.379-4.56,5.04-3.181,8.176c1.379,3.136,5.04,4.56,8.176,3.181
						s4.56-5.04,3.181-8.176C55.129,449.171,51.469,447.746,48.333,449.125z"/>
				</g>
				<g>
					<path style="fill:#F8C9C8;" d="M50.051,470.119c-4.804-0.185-8.848,3.559-9.034,8.363c-0.185,4.804,3.559,8.848,8.363,9.034
						c4.804,0.185,8.848-3.559,9.034-8.362C58.599,474.349,54.855,470.304,50.051,470.119z"/>
					
						<ellipse transform="matrix(0.7338 -0.6793 0.6793 0.7338 -312.6353 159.4874)" style="fill:#9996BF;" cx="47.216" cy="478.721" rx="6.203" ry="6.203"/>
				</g>
			</g>
			<g style="clip-path:url(#SVGID_00000005967843472748437170000000517369255731842218_);">
				<g>
					<path style="fill:#080E3A;" d="M117.317,492.393c-14.796,2.36-29.042,7.82-41.635,15.938
						c-12.876,8.301-23.883,19.405-32.135,32.31c-4.696,7.344-8.508,15.228-11.309,23.484c-0.273,0.804,0.935,1.36,1.21,0.549
						c4.928-14.527,12.995-27.921,23.522-39.079c10.253-10.868,22.836-19.457,36.644-25.153c7.649-3.155,15.652-5.421,23.823-6.724
						C118.279,493.583,118.162,492.258,117.317,492.393z"/>
					<path style="fill:#080E3A;" d="M117.207,513.354c-10.239-3.758-21.101-5.679-32.009-5.644
						c-2.683,0.009-5.363,0.148-8.034,0.394c5.838-10.104,11.675-20.207,17.513-30.311c0.428-0.741-0.785-1.284-1.21-0.549
						l-18.123,31.366c-0.255,0.441,0.202,0.985,0.665,0.936c10.622-1.124,21.401-0.36,31.757,2.262
						c3.011,0.762,5.975,1.686,8.891,2.756C117.457,514.858,118.011,513.65,117.207,513.354z"/>
					<path style="fill:#080E3A;" d="M100.338,530.484c-11.562-3.969-23.891-5.559-36.082-4.621
						c-3.237,0.249-6.456,0.689-9.645,1.291c1.567-13.099,4.342-26.053,8.342-38.625c1.151-3.618,2.404-7.203,3.748-10.754
						c0.302-0.797-0.907-1.351-1.21-0.549c-4.802,12.685-8.394,25.824-10.678,39.195c-0.649,3.796-1.189,7.61-1.63,11.436
						c-0.044,0.384,0.269,0.862,0.715,0.774c11.825-2.346,24.077-2.257,35.865,0.274c3.395,0.729,6.743,1.662,10.027,2.789
						C100.592,531.97,101.148,530.762,100.338,530.484z"/>
				</g>
				<g>
					<path style="fill:#F8C9C8;" d="M60.19,471.234c-1.89,4.42,0.161,9.536,4.581,11.426c4.42,1.89,9.536-0.161,11.426-4.581
						c1.89-4.42-0.161-9.536-4.581-11.426C67.196,464.763,62.08,466.814,60.19,471.234z"/>
					<path style="fill:#9996BF;" d="M61.507,474.518c-1.347,3.15,0.115,6.796,3.265,8.143c3.15,1.347,6.796-0.115,8.143-3.265
						c1.347-3.15-0.115-6.796-3.265-8.143C66.499,469.906,62.853,471.367,61.507,474.518z"/>
				</g>
				<g>
					<path style="fill:#F8C9C8;" d="M86.911,470.861c-1.89,4.42,0.161,9.536,4.581,11.426c4.42,1.89,9.536-0.161,11.426-4.581
						c1.89-4.42-0.161-9.536-4.582-11.426C93.917,464.389,88.801,466.44,86.911,470.861z"/>
					<path style="fill:#9996BF;" d="M88.228,474.144c-1.347,3.15,0.115,6.796,3.265,8.143c3.15,1.347,6.796-0.115,8.143-3.265
						c1.347-3.15-0.115-6.796-3.265-8.143C93.22,469.532,89.575,470.994,88.228,474.144z"/>
				</g>
				<g>
					
						<ellipse transform="matrix(0.1348 -0.9909 0.9909 0.1348 -381.583 542.5204)" style="fill:#F8C9C8;" cx="119.872" cy="489.766" rx="8.705" ry="8.705"/>
					<path style="fill:#9996BF;" d="M114.526,485.746c-2.934,1.77-3.877,5.582-2.108,8.516c1.77,2.934,5.582,3.877,8.516,2.108
						c2.934-1.77,3.877-5.582,2.108-8.516C121.272,484.92,117.46,483.977,114.526,485.746z"/>
				</g>
				<g>
					<path style="fill:#F8C9C8;" d="M83.354,492.956c-3.017,3.743-2.429,9.223,1.314,12.24c3.743,3.017,9.223,2.429,12.24-1.314
						c3.017-3.743,2.429-9.223-1.314-12.24C91.851,488.625,86.371,489.213,83.354,492.956z"/>
					<path style="fill:#9996BF;" d="M83.732,496.473c-2.15,2.667-1.731,6.573,0.937,8.723c2.667,2.15,6.573,1.731,8.723-0.937
						c2.15-2.667,1.731-6.573-0.937-8.723C89.787,493.387,85.882,493.806,83.732,496.473z"/>
				</g>
				<g>
					<path style="fill:#F8C9C8;" d="M54.475,496.497c-0.692,4.757,2.604,9.175,7.361,9.867c4.757,0.692,9.175-2.604,9.867-7.361
						c0.692-4.757-2.604-9.175-7.361-9.867C59.584,488.444,55.167,491.74,54.475,496.497z"/>
					<path style="fill:#9996BF;" d="M56.59,499.333c-0.493,3.39,1.856,6.539,5.246,7.032c3.39,0.493,6.538-1.855,7.032-5.246
						c0.493-3.39-1.856-6.538-5.246-7.031C60.231,493.594,57.083,495.943,56.59,499.333z"/>
				</g>
				<g>
					<path style="fill:#F8C9C8;" d="M80.578,517.294c-4.786-0.455-9.034,3.056-9.49,7.841c-0.455,4.786,3.056,9.034,7.842,9.49
						c4.786,0.455,9.034-3.056,9.49-7.842S85.364,517.749,80.578,517.294z"/>
					<path style="fill:#9996BF;" d="M77.851,519.547c-3.411-0.324-6.438,2.178-6.763,5.588c-0.324,3.411,2.178,6.438,5.588,6.763
						c3.411,0.324,6.438-2.178,6.763-5.588C83.764,522.899,81.262,519.871,77.851,519.547z"/>
				</g>
				<g>
					<path style="fill:#F8C9C8;" d="M120.317,504.469c-4.794-0.354-8.968,3.245-9.323,8.039c-0.354,4.794,3.245,8.968,8.039,9.323
						c4.794,0.354,8.968-3.245,9.323-8.039C128.711,508.997,125.111,504.823,120.317,504.469z"/>
					<path style="fill:#9996BF;" d="M117.638,506.779c-3.417-0.253-6.391,2.313-6.644,5.729c-0.253,3.417,2.313,6.391,5.729,6.644
						c3.417,0.253,6.391-2.313,6.644-5.729C123.62,510.006,121.055,507.031,117.638,506.779z"/>
				</g>
				<g>
					<path style="fill:#F8C9C8;" d="M109.311,526.127c-4.156-2.417-9.484-1.006-11.9,3.15c-2.417,4.156-1.006,9.484,3.15,11.901
						c4.156,2.417,9.484,1.006,11.901-3.15C114.877,533.871,113.467,528.543,109.311,526.127z"/>
					<path style="fill:#9996BF;" d="M105.891,527.032c-2.962-1.722-6.759-0.717-8.481,2.245c-1.722,2.962-0.717,6.759,2.244,8.481
						s6.759,0.717,8.481-2.245C109.858,532.551,108.853,528.754,105.891,527.032z"/>
				</g>
			</g>
		</g>
		<g>
			<path style="opacity:0.54;fill:#384791;" d="M461.26,442.915c-0.84,2.31-1.72,4.7-3.44,6.61c0.58,10.6,0.1,21.35-1.61,31.93
				c-0.15,0.94-0.32,1.88-0.49,2.81c-0.35,1.94-0.75,3.86-1.19,5.78c-0.77,3.34-1.67,6.66-2.71,9.95H341.73
				c-0.77-1.53-1.5-3.08-2.19-4.64c-1.23-2.84-2.31-5.73-3.23-8.66c-0.27-0.86-0.53-1.72-0.77-2.59c-1.47-0.58-2.87-1.26-4.19-2.04
				c-10-5.87-15.49-16.93-14.66-27.43c0.29-3.72,1.28-7.34,2.82-10.8c0.57-1.29,1.22-2.56,1.95-3.8c0.05-0.09,0.1-0.18,0.16-0.28
				c1.2-2.03,2.6-3.99,4.15-5.87c2.99-3.6,6.56-6.88,10.48-9.72c0.12-0.01,0.24-0.01,0.36-0.02c8.62-0.31,17.4-0.79,26.11-1.19
				c0.3-0.01,0.6-0.03,0.89-0.04c1.9-0.09,3.78-0.16,5.66-0.23c1.14-0.05,2.29-0.11,3.42-0.15c2.55-0.09,5.1-0.18,7.66-0.25
				c1.34-0.04,2.67-0.07,4.01-0.09c2.6-0.03,5.19-0.03,7.78,0.03c3.89,0.09,7.76,0.33,11.61,0.79c6.34,0.75,13.03,2.06,19.11,4.27
				c2.87,1.03,5.6,2.27,8.1,3.76c0.79,0.45,1.55,0.94,2.29,1.45c6.41,0.6,12.82,1.21,19.23,1.81c0.28,0.03,0.56,0.06,0.85,0.09
				c0.05,0.01,0.11,0.01,0.17,0.02c0.61,0.07,1.23,0.15,1.83,0.25c0,0,0,0,0.01,0c2.59,0.46,4.98,1.42,5.97,4.02
				C461.83,440.055,461.76,441.545,461.26,442.915z"/>
			<g>
				<path style="fill:#F8C9C8;" d="M336.247,450.709c-10.628-8.961-18.625-21.694-19.561-35.563
					c-0.936-13.87,6.225-28.573,18.854-34.384c9.752-40.983,43.019-75.313,83.891-85.52c10.365-10.344,25.333-14.221,39.589-10.874
					c0.236-2.844,1.725-5.172,4.253-6.496s5.956-0.922,7.855,1.207c1.9,2.129,1.763,5.873-0.5,7.612
					c4.956,0.94,9.988,2.453,14.544,4.708c1.546,0.765,2.484,2.389,2.425,4.113c-0.03,0.865-0.058,1.73-0.057,2.572
					c2.089,2.517,4.691,3.901,7.299,5.875c3.62,2.74,8.698,0.163,5.366,10.42c-1.144,3.522-3.801,6.409-7.283,7.672
					c-4.145,1.503-8.717,1.154-13.118,0.783c-2.988,3.963-9.57,5.864-14.389,4.676c-2.927,3.633-8.564,6.351-13.185,6.99
					c-1.619,4.767-3.152,9.322-4.771,14.088c8.524,22.937,11.506,48.078,10.356,72.52c1.726,2.233,2.608,5.027,3.443,7.715
					c0.499,1.607,0.574,3.34,0.051,4.938c-1.355,4.138-5.299,4.72-8.835,5.109c-6.409,0.706-12.817,1.412-19.226,2.117
					c-8.06,6.526-19.227,9.635-29.499,11.065c-10.272,1.43-20.701,0.994-31.063,0.555
					C360.657,452.097,348.279,451.219,336.247,450.709z"/>
				<path style="fill:#939FD5;" d="M485.491,298.799c0.746-7.491-10.389-10.714-17.403-12.489c1.141-2.76,1.251-6.22,0.006-8.983
					c-1.596-0.392-3.357-0.223-4.821,0.544c-2.528,1.324-4.017,3.652-4.253,6.496c-0.099-0.023-0.199-0.038-0.298-0.06
					c0.136,0.591,0.293,1.182,0.472,1.772c-15.128-2.312-31.77,1.604-42.066,13.711c-49.138,7.632-80.679,62.373-80.679,110.109
					c-2-7-6-13-5-21c-12.686,18.541-10.129,45.646,4.869,61.813c12.009,0.511,24.362,1.385,36.369,1.894
					c10.362,0.44,20.791,0.876,31.063-0.555c10.272-1.43,21.438-4.539,29.499-11.065c6.409-0.706,12.817-1.411,19.226-2.117
					c2.513-0.277,5.228-0.658,7.078-2.337c0.266-3.638-0.665-7.382-3.103-10.633c-1-1-2-4-5-4c4-30-3-60-15-87c3,3,6,6,9,10
					c1.613-4.032,3.222-8.064,2.738-12.095c5.206-1.769,10.07-4.549,13.148-8.917c5.793,0.82,11.684-1.121,15.911-4.762
					c6.028,2.539,13.312,1.775,19.178-0.982c1.836-1.345,1.704-2.756,2.564-4.903C496.203,306.738,491.587,302.913,485.491,298.799z
					"/>
				<g>
					<path style="fill:#384791;" d="M448.602,302.372c-1.011-0.948-1.879-2.048-2.568-3.25c-0.403-0.703-0.718-1.662-0.17-2.258
						c0.406-0.442,1.134-0.443,1.667-0.165s0.915,0.769,1.28,1.246C448.848,299.426,448.566,300.891,448.602,302.372z"/>
					<path style="fill:#231F20;" d="M473.51,300.098c0.265,0.875-0.434,1.861-1.561,2.203c-1.128,0.342-2.256-0.091-2.522-0.965
						c-0.265-0.875,0.434-1.861,1.561-2.203C472.116,298.791,473.245,299.223,473.51,300.098z"/>
					<path style="fill:#231F20;" d="M497.205,306.052c2.1-0.676,4.754-0.178,5.883,1.718c0.861,1.446,0.626,3.34-0.165,4.826
						c-0.791,1.486-2.058,2.651-3.301,3.785c-0.485,0.443-1.196,0.907-1.735,0.532c-0.476-0.332-0.398-1.044-0.579-1.595
						c-0.306-0.928-1.365-1.367-2.329-1.528C488.055,312.634,492.985,307.411,497.205,306.052z"/>
					
						<path style="fill:none;stroke:#231F20;stroke-width:0.75;stroke-linecap:round;stroke-linejoin:round;stroke-miterlimit:10;" d="
						M488.92,319.961c3.864,0.685,8.058-1.23,10.07-4.6"/>
				</g>
				<path style="fill:#F8C9C8;" d="M419.94,378.58c6.759,11.099,7.526,25.616,1.974,37.366c5.284-4.999,7.99-12.105,7.61-19.369
					C429.144,389.313,425.716,383.001,419.94,378.58z"/>
				<path style="fill:#384791;" d="M443.414,295.095c-1.508,1.552-1.854,4.112-0.812,6.009c1.042,1.897,3.388,2.978,5.507,2.537
					c-1.205,0.208-2.654,0.378-3.866,0.218c-1.213-0.16-2.43-0.751-3.049-1.805c-0.642-1.094-0.532-2.503-0.024-3.666
					S442.572,296.045,443.414,295.095z"/>
			</g>
		</g>
	</g>
</g>
</svg>
