<?xml version="1.0" encoding="utf-8"?>
<!-- Generator: Adobe Illustrator 27.5.0, SVG Export Plug-In . SVG Version: 6.00 Build 0)  -->
<svg version="1.1" xmlns="http://www.w3.org/2000/svg" xmlns:xlink="http://www.w3.org/1999/xlink" x="0px" y="0px"
	 viewBox="0 0 750 500" style="enable-background:new 0 0 750 500;" xml:space="preserve">
<g id="BACKGROUND">
	<linearGradient id="SVGID_1_" gradientUnits="userSpaceOnUse" x1="375" y1="243.2635" x2="375" y2="-77.6515">
		<stop  offset="0" style="stop-color:#96CCE3"/>
		<stop  offset="1" style="stop-color:#4D8096"/>
	</linearGradient>
	<rect style="fill:url(#SVGID_1_);" width="750" height="500"/>
</g>
<g id="OBJECTS">
	<g>
		<defs>
			<rect id="SVGID_00000057857859514452046030000015962857088174542260_" width="750" height="500"/>
		</defs>
		<clipPath id="SVGID_00000011713684205517022550000009447989997579522956_">
			<use xlink:href="#SVGID_00000057857859514452046030000015962857088174542260_"  style="overflow:visible;"/>
		</clipPath>
		<g style="clip-path:url(#SVGID_00000011713684205517022550000009447989997579522956_);">
			<circle style="fill:#FFFFFF;" cx="95.613" cy="23.716" r="1.053"/>
			<path style="fill:#FFFFFF;" d="M328.455,41.716c0-0.582-0.471-1.053-1.053-1.053c-0.581,0-1.053,0.471-1.053,1.053
				c0,0.581,0.471,1.053,1.053,1.053C327.984,42.769,328.455,42.298,328.455,41.716z"/>
			<circle style="fill:#FFFFFF;" cx="115.338" cy="35.731" r="1.053"/>
			<circle style="fill:#FFFFFF;" cx="122.171" cy="124.495" r="1.053"/>
			<path style="fill:#FFFFFF;" d="M260.921,74.89c0-0.582-0.471-1.053-1.053-1.053c-0.582,0-1.053,0.471-1.053,1.053
				c0,0.581,0.471,1.053,1.053,1.053C260.449,75.942,260.921,75.471,260.921,74.89z"/>
			<circle style="fill:#FFFFFF;" cx="672.088" cy="119.55" r="1.053"/>
			<circle style="fill:#FFFFFF;" cx="729.055" cy="196.053" r="1.053"/>
			<circle style="fill:#FFFFFF;" cx="723.516" cy="118.497" r="1.053"/>
			<circle style="fill:#FFFFFF;" cx="465.373" cy="75.942" r="1.053"/>
			<circle style="fill:#FFFFFF;" cx="17.819" cy="123.442" r="1.053"/>
			<circle style="fill:#FFFFFF;" cx="290.464" cy="164.143" r="1.053"/>
			<path style="fill:#FFFFFF;" d="M384.611,19.809c0-0.581-0.471-1.053-1.053-1.053c-0.582,0-1.053,0.471-1.053,1.053
				c0,0.582,0.471,1.053,1.053,1.053C384.14,20.862,384.611,20.391,384.611,19.809z"/>
			<path style="fill:#FFFFFF;" d="M291.516,145.475c0-0.581-0.471-1.053-1.053-1.053c-0.582,0-1.053,0.471-1.053,1.053
				c0,0.582,0.471,1.053,1.053,1.053C291.045,146.528,291.516,146.057,291.516,145.475z"/>
			<path style="fill:#FFFFFF;" d="M508.886,22.664c0-0.581-0.471-1.053-1.053-1.053c-0.582,0-1.053,0.471-1.053,1.053
				c0,0.581,0.471,1.053,1.053,1.053C508.414,23.716,508.886,23.245,508.886,22.664z"/>
			<path style="fill:#FFFFFF;" d="M621.499,78.21c0-0.581-0.471-1.053-1.053-1.053c-0.582,0-1.053,0.471-1.053,1.053
				c0,0.581,0.471,1.053,1.053,1.053C621.027,79.263,621.499,78.791,621.499,78.21z"/>
			<path style="fill:#FFFFFF;" d="M674.193,19.809c0-0.581-0.471-1.053-1.053-1.053c-0.581,0-1.053,0.471-1.053,1.053
				s0.471,1.053,1.053,1.053C673.722,20.862,674.193,20.391,674.193,19.809z"/>
			<path style="fill:#FFFFFF;" d="M165.446,59.361c0-0.581-0.471-1.053-1.053-1.053c-0.581,0-1.053,0.471-1.053,1.053
				c0,0.581,0.471,1.053,1.053,1.053C164.975,60.414,165.446,59.942,165.446,59.361z"/>
			<path style="fill:#FFFFFF;" d="M191.556,195c0-0.581-0.471-1.053-1.053-1.053c-0.581,0-1.053,0.471-1.053,1.053
				s0.471,1.053,1.053,1.053C191.085,196.053,191.556,195.581,191.556,195z"/>
			<path style="fill:#FFFFFF;" d="M271.033,20.862c0-0.581-0.471-1.053-1.053-1.053c-0.582,0-1.053,0.471-1.053,1.053
				s0.471,1.053,1.053,1.053C270.561,21.915,271.033,21.443,271.033,20.862z"/>
			<circle style="fill:#FFFFFF;" cx="534.468" cy="128.021" r="1.053"/>
			<circle style="fill:#FFFFFF;" cx="487.998" cy="155.82" r="1.053"/>
			<path style="fill:#FFFFFF;" d="M569.281,34.679c0-0.581-0.471-1.053-1.053-1.053c-0.581,0-1.053,0.471-1.053,1.053
				c0,0.581,0.471,1.053,1.053,1.053C568.81,35.731,569.281,35.26,569.281,34.679z"/>
			<path style="fill:#FFFFFF;" d="M568.228,144.423c0-0.581-0.471-1.053-1.053-1.053c-0.581,0-1.053,0.471-1.053,1.053
				c0,0.581,0.471,1.053,1.053,1.053C567.757,145.476,568.228,145.004,568.228,144.423z"/>
			<path style="fill:#FFFFFF;" d="M54.64,60.781c0-0.582-0.471-1.053-1.053-1.053c-0.581,0-1.053,0.471-1.053,1.053
				c0,0.581,0.471,1.053,1.053,1.053C54.169,61.833,54.64,61.362,54.64,60.781z"/>
			<g>
				
					<line style="fill:none;stroke:#FFFFFF;stroke-linecap:round;stroke-linejoin:round;stroke-miterlimit:10;" x1="432.009" y1="44.786" x2="432.009" y2="49.731"/>
				
					<line style="fill:none;stroke:#FFFFFF;stroke-linecap:round;stroke-linejoin:round;stroke-miterlimit:10;" x1="430.201" y1="47.258" x2="433.816" y2="47.258"/>
			</g>
			<g>
				
					<line style="fill:none;stroke:#FFFFFF;stroke-linecap:round;stroke-linejoin:round;stroke-miterlimit:10;" x1="392.58" y1="97.885" x2="392.58" y2="102.83"/>
				
					<line style="fill:none;stroke:#FFFFFF;stroke-linecap:round;stroke-linejoin:round;stroke-miterlimit:10;" x1="390.773" y1="100.358" x2="394.388" y2="100.358"/>
			</g>
			<g>
				
					<line style="fill:none;stroke:#FFFFFF;stroke-linecap:round;stroke-linejoin:round;stroke-miterlimit:10;" x1="319.287" y1="158.145" x2="319.287" y2="163.09"/>
				
					<line style="fill:none;stroke:#FFFFFF;stroke-linecap:round;stroke-linejoin:round;stroke-miterlimit:10;" x1="317.48" y1="160.618" x2="321.095" y2="160.618"/>
			</g>
			<g>
				
					<line style="fill:none;stroke:#FFFFFF;stroke-linecap:round;stroke-linejoin:round;stroke-miterlimit:10;" x1="524.132" y1="195" x2="524.132" y2="199.945"/>
				
					<line style="fill:none;stroke:#FFFFFF;stroke-linecap:round;stroke-linejoin:round;stroke-miterlimit:10;" x1="522.324" y1="197.473" x2="525.94" y2="197.473"/>
			</g>
			<g>
				
					<line style="fill:none;stroke:#FFFFFF;stroke-linecap:round;stroke-linejoin:round;stroke-miterlimit:10;" x1="714.069" y1="42.313" x2="714.069" y2="47.258"/>
				
					<line style="fill:none;stroke:#FFFFFF;stroke-linecap:round;stroke-linejoin:round;stroke-miterlimit:10;" x1="712.261" y1="44.786" x2="715.876" y2="44.786"/>
			</g>
			<g>
				
					<line style="fill:none;stroke:#FFFFFF;stroke-linecap:round;stroke-linejoin:round;stroke-miterlimit:10;" x1="531.608" y1="59.361" x2="531.608" y2="64.306"/>
				
					<line style="fill:none;stroke:#FFFFFF;stroke-linecap:round;stroke-linejoin:round;stroke-miterlimit:10;" x1="529.8" y1="61.833" x2="533.415" y2="61.833"/>
			</g>
			<g>
				
					<line style="fill:none;stroke:#FFFFFF;stroke-linecap:round;stroke-linejoin:round;stroke-miterlimit:10;" x1="208.811" y1="119.55" x2="208.811" y2="124.495"/>
				
					<line style="fill:none;stroke:#FFFFFF;stroke-linecap:round;stroke-linejoin:round;stroke-miterlimit:10;" x1="207.003" y1="122.023" x2="210.618" y2="122.023"/>
			</g>
			<g>
				
					<line style="fill:none;stroke:#FFFFFF;stroke-linecap:round;stroke-linejoin:round;stroke-miterlimit:10;" x1="70.558" y1="70.997" x2="70.558" y2="75.942"/>
				
					<line style="fill:none;stroke:#FFFFFF;stroke-linecap:round;stroke-linejoin:round;stroke-miterlimit:10;" x1="68.75" y1="73.47" x2="72.366" y2="73.47"/>
			</g>
			<g>
				
					<line style="fill:none;stroke:#FFFFFF;stroke-linecap:round;stroke-linejoin:round;stroke-miterlimit:10;" x1="703.783" y1="125.548" x2="703.783" y2="130.493"/>
				
					<line style="fill:none;stroke:#FFFFFF;stroke-linecap:round;stroke-linejoin:round;stroke-miterlimit:10;" x1="701.976" y1="128.021" x2="705.591" y2="128.021"/>
			</g>
		</g>
		
			<radialGradient id="SVGID_00000080172502231156868070000010175405701972204416_" cx="385.7443" cy="186.9621" r="332.4562" gradientTransform="matrix(0.9996 0.03 -0.03 0.9996 2.8598 -8.3756)" gradientUnits="userSpaceOnUse">
			<stop  offset="0" style="stop-color:#FFFFFF;stop-opacity:0"/>
			<stop  offset="1" style="stop-color:#FFFFFF"/>
		</radialGradient>
		
			<path style="opacity:0.45;clip-path:url(#SVGID_00000011713684205517022550000009447989997579522956_);fill:url(#SVGID_00000080172502231156868070000010175405701972204416_);" d="
			M496.758,173.583c-12.763,0.455-25.485,2.078-38.25,2.515c-1.289,0.044-2.631,0.075-3.807-0.455
			c-1.175-0.53-2.126-1.798-1.85-3.058c0.285-1.306,1.693-2.037,3.004-2.299c4.909-0.978,10.174,2.099,14.864,0.351
			c2.863-1.069,4.876-3.75,7.706-4.909c4.673-1.914,9.852,0.798,14.887,1.175c7.284,0.546,13.932-3.824,19.843-8.115
			c5.911-4.291,12.295-8.893,19.599-8.912c5.859-0.017,11.247,2.942,16.526,5.485c5.279,2.544,11.224,4.783,16.881,3.254
			c7.898-2.135,12.164-10.615,18.947-15.188c7.389-4.979,17.963-4.624,23.98,0.844c5.345-7.02,13.247-13.547,21.991-12.357
			c9.017,1.227,15.219,10.147,24.013,12.491c10.432,2.783,20.726-4.301,31.369-6.122c5.87-1.006,12.096-0.334,17.405,2.364
			c5.311,2.698,9.618,7.502,11.258,13.228c0.581,2.029,0.829,4.198,0.355,6.256c-0.93,4.044-4.475,6.998-8.23,8.763
			c-6.797,3.196-14.559,3.426-22.069,3.6c-12.212,0.282-24.4-0.787-37.56-0.595C597.213,172.636,548.956,171.724,496.758,173.583z
			 M199.074,188.879c12.764,0.455,25.485,2.078,38.251,2.515c1.288,0.044,2.63,0.075,3.806-0.455s2.126-1.798,1.852-3.058
			c-0.286-1.306-1.694-2.037-3.004-2.299c-4.909-0.978-10.174,2.099-14.864,0.351c-2.864-1.069-4.877-3.75-7.707-4.909
			c-4.673-1.915-9.851,0.798-14.887,1.175c-7.283,0.546-13.932-3.824-19.843-8.115c-5.911-4.291-12.294-8.893-19.598-8.914
			c-5.859-0.016-11.247,2.943-16.526,5.486c-5.278,2.543-11.224,4.783-16.881,3.254c-7.898-2.135-12.164-10.615-18.947-15.188
			c-7.389-4.979-17.963-4.624-23.98,0.844c-5.344-7.021-13.247-13.547-21.99-12.357c-9.017,1.226-15.219,10.146-24.013,12.491
			c-10.432,2.783-20.727-4.301-31.37-6.123c-5.871-1.005-12.095-0.333-17.405,2.365c-5.309,2.698-9.618,7.502-11.258,13.228
			c-0.581,2.029-0.829,4.198-0.355,6.256c0.931,4.044,4.475,6.998,8.23,8.763c6.797,3.196,14.559,3.426,22.069,3.6
			c12.212,0.282,24.4-0.787,37.56-0.595C98.62,187.931,146.876,187.02,199.074,188.879z M367.104,98.006
			c3.222,0.018,9.382,0.323,9.57-1.924c0.305-3.631-5.937-4.166-13.372-3.289c-1.034,0.122-4.139,0.161-5.179,0.087
			c-1.822-0.13-3.163-1.803-3.824-3.507c-0.66-1.704-0.889-3.572-1.745-5.187c-1.527-2.883-5.121-4.498-8.292-3.725
			c-2.082,0.508-3.959,1.917-6.102,1.904c-4.498-0.029-7.663-6.189-12.045-5.177c-1.994,0.46-3.316,2.293-4.978,3.489
			c-3.666,2.64-10.156,2.108-12.024-2.006c-2.399-5.284-7.793-6.62-12.273-4.569c-4.481,2.051-7.654,6.095-11.266,9.446
			c-3.612,3.351-8.455,6.225-13.241,5.052c-4.947-1.214-8.887-6.538-13.893-5.6c-4.423,0.829-6.515,6.07-10.481,8.195
			c-4.705,2.521-10.366,0.054-15.586-1.061c-2.314-0.494-5.733,0.249-5.447,2.598c0.106,0.872,0.765,1.569,1.458,2.108
			c3.602,2.809,8.54,2.948,13.107,2.965c31.249,0.119,62.497,0.24,93.746,0.36C346.571,98.21,356.836,97.946,367.104,98.006z"/>
		<g style="clip-path:url(#SVGID_00000011713684205517022550000009447989997579522956_);">
			<path style="opacity:0.3;fill:#FFED65;" d="M431.352,220.938c29.345,12.863,44.596,50.971,32.226,80.528
				c-12.37,29.556-50.217,45.442-79.976,33.57c-29.76-11.873-46.278-49.449-34.905-79.404
				C360.07,225.678,398.215,206.414,431.352,220.938z"/>
			<path style="opacity:0.3;fill:#FFED65;" d="M420.796,244.943c16.889,7.403,25.666,29.335,18.547,46.345
				c-7.118,17.011-28.901,26.155-46.028,19.321c-17.127-6.833-26.634-28.459-20.089-45.699
				C379.772,247.671,401.725,236.583,420.796,244.943z"/>
			<path style="opacity:0.3;fill:#FFED65;" d="M414.914,258.324c9.946,4.36,15.114,17.275,10.922,27.293
				c-4.192,10.018-17.02,15.401-27.106,11.378c-10.086-4.025-15.684-16.76-11.83-26.912
				C390.755,259.931,403.683,253.401,414.914,258.324z"/>
			<path style="fill:#FFF982;" d="M412.48,263.861c7.072,3.1,10.748,12.285,7.767,19.409c-2.981,7.124-12.103,10.953-19.276,8.091
				c-7.173-2.861-11.154-11.918-8.413-19.138C395.299,265.004,404.493,260.361,412.48,263.861z"/>
		</g>
		<g style="clip-path:url(#SVGID_00000011713684205517022550000009447989997579522956_);">
			<path style="fill:#304354;" d="M776.269,251.977c-45.076-32-85.652-70.329-120.167-113.51
				c-5.269,7.795-13.872,12.627-22.095,14.228c-8.223,1.601-16.819,1.003-24.886,3.262c-9.343,2.618-17.191,8.831-24.762,14.899
				c-25.038,20.067-50.076,40.134-75.113,60.201c-12.123,9.716-24.328,19.486-37.975,26.907
				c-26.1,14.193-56.085,19.095-82.08,29.415c8.986,37.975,42.758,66.153,79.536,79.197c36.778,13.043,76.648,13.509,115.67,13.833
				c53.006,0.439,106.011,0.879,159.016,1.318c12.075,0.1,25.773-0.491,33.702-9.599c5.417-6.223,6.686-14.938,7.592-23.138
				C788.19,317.4,789.616,285.582,776.269,251.977z"/>
			<path style="fill:#3B5166;" d="M634.007,152.695c-8.223,1.601-16.819,1.003-24.886,3.262
				c-9.343,2.618-17.191,8.831-24.762,14.899c-25.038,20.067-50.076,40.134-75.113,60.201
				c-12.123,9.716-24.328,19.486-37.975,26.907c-26.1,14.193-56.085,19.095-82.08,29.415c3.507,14.819,10.799,28.138,20.561,39.656
				c24.992-6.873,48.173-22.261,69.66-37.569c29.56-21.061,60.841-43.636,97.065-45.938c9.025-0.573,18.122,0.154,27.101-0.927
				c8.977-1.082,18.17-4.276,24.029-11.163c5.859-6.889,7.194-18.09,1.16-24.825c-3.386-3.778-8.384-5.617-12.511-8.567
				c-4.127-2.95-7.597-8.195-5.676-12.89c1.87-4.573,7.525-5.912,12.257-7.329c20.227-6.055,31.417-18.327,33.265-39.359
				C650.833,146.262,642.23,151.094,634.007,152.695z"/>
		</g>
		<g style="clip-path:url(#SVGID_00000011713684205517022550000009447989997579522956_);">
			<path style="fill:#51809C;" d="M449.392,324.816c1.718-5.377,4.43-10.538,8.514-14.435c4.085-3.896,9.647-6.424,15.285-6.136
				c5.638,0.287,11.197,3.682,15.335,10.216c2.08-10.037,4.417-20.591,11.309-28.178c4.258-4.687,10.893-7.995,16.915-6.036
				c4.038,1.313,7.084,4.783,8.868,8.636c1.782,3.854,2.471,8.108,4.607,12.809c1.211-7.41,2.467-14.961,5.902-21.637
				c3.437-6.676,9.478-12.456,16.896-13.616c7.418-1.16,15.848,3.6,17.035,11.013c7.367-4.987,17.294-5.941,25.477-2.449
				c8.182,3.491,14.362,11.318,15.897,21.373c1.725-7.281,2.314-14.777,3.647-22.138c1.334-7.361,3.496-14.761,7.941-20.778
				c4.444-6.018,11.518-10.476,18.994-10.228c9.241,0.306,17.046,7.692,20.681,16.193c3.634,8.501,3.93,18.002,4.122,28.165
				c1.614-6.715,8.017-11.973,14.92-12.251c6.902-0.276,13.706,4.453,16.158,11.677c-0.984-10.425-1.941-21.16,1.072-31.188
				c3.014-10.03,10.997-19.306,21.393-20.571c8.027-0.976,16.065,3.004,21.657,8.846c5.593,5.841,9.084,13.359,11.957,20.918
				c11.191,29.446,14.364,61.897,9.091,92.954l-303.915-4.913L449.392,324.816z"/>
			<g>
				<defs>
					<path id="SVGID_00000152224453644742868240000004943437925606411650_" d="M449.392,324.816
						c1.718-5.377,4.43-10.538,8.514-14.435c4.085-3.896,9.647-6.424,15.285-6.136c5.638,0.287,11.197,3.682,15.335,10.216
						c2.08-10.037,4.417-20.591,11.309-28.178c4.258-4.687,10.893-7.995,16.915-6.036c4.038,1.313,7.084,4.783,8.868,8.636
						c1.782,3.854,2.471,8.108,4.607,12.809c1.211-7.41,2.467-14.961,5.902-21.637c3.437-6.676,9.478-12.456,16.896-13.616
						c7.418-1.16,15.848,3.6,17.035,11.013c7.367-4.987,17.294-5.941,25.477-2.449c8.182,3.491,14.362,11.318,15.897,21.373
						c1.725-7.281,2.314-14.777,3.647-22.138c1.334-7.361,3.496-14.761,7.941-20.778c4.444-6.018,11.518-10.476,18.994-10.228
						c9.241,0.306,17.046,7.692,20.681,16.193c3.634,8.501,3.93,18.002,4.122,28.165c1.614-6.715,8.017-11.973,14.92-12.251
						c6.902-0.276,13.706,4.453,16.158,11.677c-0.984-10.425-1.941-21.16,1.072-31.188c3.014-10.03,10.997-19.306,21.393-20.571
						c8.027-0.976,16.065,3.004,21.657,8.846c5.593,5.841,9.084,13.359,11.957,20.918c11.191,29.446,14.364,61.897,9.091,92.954
						l-303.915-4.913L449.392,324.816z"/>
				</defs>
				<clipPath id="SVGID_00000027571010908511572620000014415200663392473235_">
					<use xlink:href="#SVGID_00000152224453644742868240000004943437925606411650_"  style="overflow:visible;"/>
				</clipPath>
				<g style="clip-path:url(#SVGID_00000027571010908511572620000014415200663392473235_);">
					<g>
						
							<path style="fill:none;stroke:#2E2854;stroke-width:0.75;stroke-linecap:round;stroke-linejoin:round;stroke-miterlimit:10;" d="
							M642.903,236.231c-2.376,34.342-4.751,68.683-7.127,103.023"/>
						
							<path style="fill:none;stroke:#2E2854;stroke-width:0.75;stroke-linecap:round;stroke-linejoin:round;stroke-miterlimit:10;" d="
							M622.94,241.66c6.43,12.71,12.069,25.81,16.869,39.22"/>
					</g>
					
						<path style="fill:none;stroke:#2E2854;stroke-width:0.75;stroke-linecap:round;stroke-linejoin:round;stroke-miterlimit:10;" d="
						M663.315,247.559c-11.187,27.905-18.775,57.25-22.52,87.081"/>
					
						<path style="fill:none;stroke:#2E2854;stroke-width:0.75;stroke-linecap:round;stroke-linejoin:round;stroke-miterlimit:10;" d="
						M684.132,269.099c-0.143,25.036-0.284,50.071-0.427,75.107"/>
					<g>
						
							<path style="fill:none;stroke:#2E2854;stroke-width:0.75;stroke-linecap:round;stroke-linejoin:round;stroke-miterlimit:10;" d="
							M703.658,234.781c10.128,37.886,14.446,77.319,12.756,116.499"/>
						
							<path style="fill:none;stroke:#2E2854;stroke-width:0.75;stroke-linecap:round;stroke-linejoin:round;stroke-miterlimit:10;" d="
							M714.632,294.088c3.08-21.595,8.507-42.857,16.164-63.285"/>
						
							<path style="fill:none;stroke:#2E2854;stroke-width:0.75;stroke-linecap:round;stroke-linejoin:round;stroke-miterlimit:10;" d="
							M721.511,260.023c8.06-6.125,16.686-11.508,25.732-16.053"/>
					</g>
					
						<path style="fill:none;stroke:#2E2854;stroke-width:0.75;stroke-linecap:round;stroke-linejoin:round;stroke-miterlimit:10;" d="
						M554.626,263.539c12.324,20.237,19.484,43.591,20.621,67.258"/>
					<g>
						
							<path style="fill:none;stroke:#2E2854;stroke-width:0.75;stroke-linecap:round;stroke-linejoin:round;stroke-miterlimit:10;" d="
							M584.065,268.072c2.584,20.382,4.106,40.899,4.56,61.44"/>
						
							<path style="fill:none;stroke:#2E2854;stroke-width:0.75;stroke-linecap:round;stroke-linejoin:round;stroke-miterlimit:10;" d="
							M602.56,269.08c-5.279,8.17-10.55,16.33-15.829,24.5"/>
					</g>
					<g>
						
							<path style="fill:none;stroke:#2E2854;stroke-width:0.75;stroke-linecap:round;stroke-linejoin:round;stroke-miterlimit:10;" d="
							M534.404,277.495c8.142,16.907,13.571,35.117,16.017,53.723"/>
						
							<path style="fill:none;stroke:#2E2854;stroke-width:0.75;stroke-linecap:round;stroke-linejoin:round;stroke-miterlimit:10;" d="
							M544.05,269.13c-1,8.021-2,16.04-3,24.061"/>
					</g>
					<g>
						
							<path style="fill:none;stroke:#2E2854;stroke-width:0.75;stroke-linecap:round;stroke-linejoin:round;stroke-miterlimit:10;" d="
							M501.373,282.105c3.517,17.854,7.032,35.707,10.549,53.561"/>
						
							<path style="fill:none;stroke:#2E2854;stroke-width:0.75;stroke-linecap:round;stroke-linejoin:round;stroke-miterlimit:10;" d="
							M488.16,297.14c7,4.69,13.5,10.13,19.359,16.181"/>
						
							<path style="fill:none;stroke:#2E2854;stroke-width:0.75;stroke-linecap:round;stroke-linejoin:round;stroke-miterlimit:10;" d="
							M521.1,271.7c-5.85,9.37-11.22,19.05-16.069,28.979"/>
					</g>
					
						<path style="fill:none;stroke:#2E2854;stroke-width:0.75;stroke-linecap:round;stroke-linejoin:round;stroke-miterlimit:10;" d="
						M470.948,302.207c1.146,12.914,1.595,25.89,1.347,38.852"/>
				</g>
			</g>
			<path style="opacity:0.2;fill:#C7FFF3;" d="M753.974,265.021c-2.873-7.559-6.364-15.077-11.957-20.918
				c-5.592-5.842-13.63-9.822-21.657-8.846c-10.396,1.265-18.379,10.541-21.393,20.571c-3.013,10.028-2.056,20.763-1.072,31.188
				c-2.452-7.224-9.256-11.953-16.158-11.677c-6.903,0.278-13.306,5.536-14.92,12.251c-0.192-10.163-0.488-19.664-4.122-28.165
				c-3.635-8.501-11.44-15.887-20.681-16.193c-7.476-0.248-14.55,4.21-18.994,10.228c-4.445,6.017-6.607,13.417-7.941,20.778
				c-1.333,7.361-1.922,14.857-3.647,22.138c-1.535-10.055-7.715-17.882-15.897-21.373c-8.183-3.492-18.11-2.538-25.477,2.449
				c-1.187-7.413-9.617-12.173-17.035-11.013c-7.418,1.16-13.459,6.94-16.896,13.616c-3.435,6.676-4.691,14.227-5.902,21.637
				c-2.136-4.701-2.825-8.955-4.607-12.809c-1.784-3.853-4.83-7.323-8.868-8.636c-6.022-1.959-12.657,1.349-16.915,6.036
				c-6.892,7.587-9.229,18.141-11.309,28.178c-4.138-6.534-9.697-9.929-15.335-10.216c-5.638-0.288-11.2,2.24-15.285,6.136
				c-4.084,3.897-6.796,9.058-8.514,14.435l0.813,2.353c3.542-6.883,10.23-12.076,17.79-13.759
				c7.744-1.724,16.23,0.267,22.915,5.129c3.342-9.045,8.212-17.523,14.342-24.966c2.472-3.002,5.751-6.083,9.621-5.702
				c3.297,0.324,5.779,3.073,7.714,5.763c3.126,4.346,5.746,9.057,7.77,14.729c2.176-4.702,3.207-9.834,4.564-14.834
				c1.357-5,3.124-10.038,6.477-13.986c3.354-3.949,8.599-6.639,13.695-5.713c5.812,1.056,9.827,6.238,14.329,11.522
				c3.449-5.243,9.946-8.072,16.217-7.834c6.271,0.236,12.237,3.267,16.773,7.604c4.536,4.336,7.744,9.904,10.897,16.553
				c4.945-15.102,10.778-30.179,20.346-42.866c2.096-2.779,4.435-5.491,7.494-7.152c3.06-1.659,6.987-2.091,9.972-0.3
				c3.04,1.824,4.452,5.424,5.514,8.806c3.835,12.204,5.808,24.992,6.513,38.358c3.59-6.318,10.066-10.915,17.213-12.223
				c7.147-1.309,14.832,0.699,20.585,5.104c-0.539-11.246,1.743-22.617,6.579-32.785c2.52-5.298,6.087-10.581,11.561-12.692
				c4.264-1.644,9.164-1.079,13.331,0.799c4.167,1.877,7.681,4.964,10.759,8.342c7.164,7.864,12.292,17.568,14.75,27.918
				l1.408-1.414C757.819,275.971,756.035,270.445,753.974,265.021z"/>
			<path style="opacity:0.12;fill:#292940;" d="M455.165,333.066l-1.641,3.713l5.625,16.284l297.952,4.817l-0.355-16.505
				c0,0-77.538-22.549-160.047-23.736C514.192,316.451,455.165,333.066,455.165,333.066z"/>
		</g>
		<g style="clip-path:url(#SVGID_00000011713684205517022550000009447989997579522956_);">
			<path style="fill:#3B5166;" d="M-59.625,247.261c39.229-39.75,78.458-79.499,125.258-121.636
				c22.202,20.814,44.606,41.783,70.575,57.65c25.97,15.866,56.099,26.461,86.466,24.464c15.222-1,30.378-5.122,45.534-3.391
				c16.218,1.851,30.861,10.213,44.984,18.396c58.283,33.77,118.631,69.438,160.171,128.205
				c-42.554,43.68-98.719,72.453-157.356,89.204c-58.636,16.752-119.945,22.067-180.902,23.81
				c-36.178,1.033-72.596,0.82-108.264-5.322s-70.761-18.466-99.965-39.846L-59.625,247.261z"/>
			<path style="fill:#48637D;" d="M139.79,205.071c3.674-0.785,7.998-1.929,10.8,0.573c4.291,3.83,0.078,10.796,0.499,16.532
				c0.654,8.904,11.942,12.319,20.869,12.427c33.135,0.399,65.748-13.235,98.668-9.44c34.777,4.009,64.44,26.876,88.839,51.978
				c30.525,31.407,55.948,67.743,75.09,107.133c13.845-9.976,26.863-21.063,38.809-33.325
				c-41.54-58.767-101.888-94.435-160.171-128.205c-14.123-8.183-28.766-16.545-44.984-18.396
				c-15.156-1.731-30.312,2.391-45.534,3.391c-30.367,1.997-60.496-8.598-86.466-24.464c-25.969-15.867-48.373-36.836-70.575-57.65
				c3.593,21.401,7.75,33.785,19.461,52.055C96.805,195.95,118.567,209.599,139.79,205.071z"/>
		</g>
	</g>
	<g>
		<defs>
			<rect id="SVGID_00000137825777279482017960000003803718274889303222_" width="750" height="500"/>
		</defs>
		<clipPath id="SVGID_00000034078259079332253960000011581874268403277241_">
			<use xlink:href="#SVGID_00000137825777279482017960000003803718274889303222_"  style="overflow:visible;"/>
		</clipPath>
		<g style="clip-path:url(#SVGID_00000034078259079332253960000011581874268403277241_);">
			<path style="fill:#5B90B0;" d="M-2.298,339.958c0.008-17.771,6.63-35.465,18.291-48.875c4.38-5.038,10.056-9.74,16.73-9.897
				c9.251-0.219,16.323,8.224,20.314,16.574c6.01,12.571,8.482,26.811,10.4,39.267c3.014-32.68,11.182-64.881,24.111-95.047
				c4.174-9.738,9.508-19.959,19.063-24.539c14.52-6.962,32.6,2.971,40.241,17.146c7.64,14.175,7.61,31.08,9.982,43.983
				c-0.44-11.866,11.949-22.409,23.592-20.077c6.604,1.323,12.176,6.013,15.832,11.669c3.656,5.655,5.611,12.233,7.107,18.799
				c5.475,24.023,5.382,48.918,8.797,72.025c2.722-9.802,3.073-20.077,4.177-30.19c1.105-10.113,3.092-20.442,8.621-28.982
				c5.528-8.54,15.295-14.972,25.42-13.986c10.555,1.029,19.059,9.82,22.926,19.695c3.868,9.876,3.988,20.761,7.225,33.388
				c4.139-12.634,19.372-20.382,32.02-16.288c12.648,4.094,20.451,19.298,19.026,34.442c4.2-10.139,15.042-16.483,25.964-17.556
				c10.923-1.074,21.848,2.4,31.631,7.374c5.284,2.686,10.402,5.844,16.107,7.455c5.704,1.611,12.291,1.444,17.02-2.13l5.973,70.132
				L-2.034,435.625L-2.298,339.958z"/>
			<g>
				<defs>
					<path id="SVGID_00000172404278428105062840000016106681011366045076_" d="M-2.298,339.958
						c0.008-17.771,6.63-35.465,18.291-48.875c4.38-5.038,10.056-9.74,16.73-9.897c9.251-0.219,16.323,8.224,20.314,16.574
						c6.01,12.571,8.482,26.811,10.4,39.267c3.014-32.68,11.182-64.881,24.111-95.047c4.174-9.738,9.508-19.959,19.063-24.539
						c14.52-6.962,32.6,2.971,40.241,17.146c7.64,14.175,7.61,31.08,9.982,43.983c-0.44-11.866,11.949-22.409,23.592-20.077
						c6.604,1.323,12.176,6.013,15.832,11.669c3.656,5.655,5.611,12.233,7.107,18.799c5.475,24.023,5.382,48.918,8.797,72.025
						c2.722-9.802,3.073-20.077,4.177-30.19c1.105-10.113,3.092-20.442,8.621-28.982c5.528-8.54,15.295-14.972,25.42-13.986
						c10.555,1.029,19.059,9.82,22.926,19.695c3.868,9.876,3.988,20.761,7.225,33.388c4.139-12.634,19.372-20.382,32.02-16.288
						c12.648,4.094,20.451,19.298,19.026,34.442c4.2-10.139,15.042-16.483,25.964-17.556c10.923-1.074,21.848,2.4,31.631,7.374
						c5.284,2.686,10.402,5.844,16.107,7.455c5.704,1.611,12.291,1.444,17.02-2.13l5.973,70.132L-2.034,435.625L-2.298,339.958z"/>
				</defs>
				<clipPath id="SVGID_00000014626754878648881630000015617148441038296196_">
					<use xlink:href="#SVGID_00000172404278428105062840000016106681011366045076_"  style="overflow:visible;"/>
				</clipPath>
				<g style="clip-path:url(#SVGID_00000014626754878648881630000015617148441038296196_);">
					
						<path style="fill:none;stroke:#2E2854;stroke-width:0.75;stroke-linecap:round;stroke-linejoin:round;stroke-miterlimit:10;" d="
						M217.672,307.929c10.282,36.885,15.707,75.122,16.089,113.412"/>
					<g>
						
							<path style="fill:none;stroke:#2E2854;stroke-width:0.75;stroke-linecap:round;stroke-linejoin:round;stroke-miterlimit:10;" d="
							M247.03,277.849c4.098,51.722,8.196,103.442,12.294,155.163"/>
						
							<path style="fill:none;stroke:#2E2854;stroke-width:0.75;stroke-linecap:round;stroke-linejoin:round;stroke-miterlimit:10;" d="
							M272.4,292.04c-1.26,2.37-2.49,4.75-3.7,7.15c-6.33,12.52-11.99,25.39-16.93,38.52"/>
					</g>
					<g>
						
							<path style="fill:none;stroke:#2E2854;stroke-width:0.75;stroke-linecap:round;stroke-linejoin:round;stroke-miterlimit:10;" d="
							M350.564,427.504c2.271-36.228,8.697-72.194,19.112-106.967"/>
						
							<path style="fill:none;stroke:#2E2854;stroke-width:0.75;stroke-linecap:round;stroke-linejoin:round;stroke-miterlimit:10;" d="
							M358.94,363.58c-2.48-6.98-4.97-13.95-7.45-20.93c-1.11-3.11-2.22-6.23-3.33-9.341"/>
					</g>
					<g>
						
							<path style="fill:none;stroke:#2E2854;stroke-width:0.75;stroke-linecap:round;stroke-linejoin:round;stroke-miterlimit:10;" d="
							M292.876,427.908c1.27-40.24,7.579-80.318,18.734-119.002"/>
						
							<path style="fill:none;stroke:#2E2854;stroke-width:0.75;stroke-linecap:round;stroke-linejoin:round;stroke-miterlimit:10;" d="
							M334.53,322.06c-3.39,3.69-6.78,7.391-10.17,11.08c-8.17,8.891-16.33,17.78-24.49,26.67"/>
					</g>
					<g>
						
							<path style="fill:none;stroke:#2E2854;stroke-width:0.75;stroke-linecap:round;stroke-linejoin:round;stroke-miterlimit:10;" d="
							M115.102,202.433c5.138,71.053,4.943,142.491-0.581,213.515"/>
						
							<path style="fill:none;stroke:#2E2854;stroke-width:0.75;stroke-linecap:round;stroke-linejoin:round;stroke-miterlimit:10;" d="
							M80.27,230c15.49,21.29,28.46,44.41,38.54,68.73"/>
						
							<path style="fill:none;stroke:#2E2854;stroke-width:0.75;stroke-linecap:round;stroke-linejoin:round;stroke-miterlimit:10;" d="
							M146.35,219.67c-9.42,13.56-18.83,27.11-28.24,40.67"/>
					</g>
					<g>
						
							<path style="fill:none;stroke:#2E2854;stroke-width:0.75;stroke-linecap:round;stroke-linejoin:round;stroke-miterlimit:10;" d="
							M180.168,245.512c-2.147,58.017-4.295,116.035-6.442,174.052"/>
						
							<path style="fill:none;stroke:#2E2854;stroke-width:0.75;stroke-linecap:round;stroke-linejoin:round;stroke-miterlimit:10;" d="
							M200.12,256.31c-7.35,15.48-14.71,30.971-22.07,46.46"/>
						
							<path style="fill:none;stroke:#2E2854;stroke-width:0.75;stroke-linecap:round;stroke-linejoin:round;stroke-miterlimit:10;" d="
							M149.66,411.1c6.91-22.13,15.88-43.619,26.75-64.09"/>
					</g>
					
						<path style="fill:none;stroke:#2E2854;stroke-width:0.75;stroke-linecap:round;stroke-linejoin:round;stroke-miterlimit:10;" d="
						M9.367,290.191c10.419,37.108,16.957,75.305,19.473,113.765"/>
					<g>
						
							<path style="fill:none;stroke:#2E2854;stroke-width:0.75;stroke-linecap:round;stroke-linejoin:round;stroke-miterlimit:10;" d="
							M31.728,274.234c7.279,47.285,11.383,95.058,12.277,142.892"/>
						
							<path style="fill:none;stroke:#2E2854;stroke-width:0.75;stroke-linecap:round;stroke-linejoin:round;stroke-miterlimit:10;" d="
							M55.8,286.14c-5.61,15.101-11.23,30.2-16.84,45.29"/>
					</g>
				</g>
			</g>
			<path style="opacity:0.2;fill:#C7FFF3;" d="M422.299,354.208c-4.729,3.574-11.316,3.741-17.02,2.13
				c-5.705-1.611-10.823-4.769-16.107-7.455c-9.783-4.974-20.708-8.448-31.631-7.374c-10.922,1.073-21.764,7.417-25.964,17.556
				c1.425-15.144-6.378-30.348-19.026-34.442c-12.648-4.094-27.881,3.654-32.02,16.288c-3.237-12.627-3.357-23.512-7.225-33.388
				c-3.867-9.875-12.371-18.666-22.926-19.695c-10.125-0.986-19.892,5.446-25.42,13.986c-5.529,8.54-7.516,18.869-8.621,28.982
				c-1.104,10.113-1.455,20.388-4.177,30.19c-3.415-23.107-3.322-48.002-8.797-72.025c-1.496-6.566-3.451-13.144-7.107-18.799
				c-3.656-5.656-9.228-10.346-15.832-11.669c-11.643-2.332-24.032,8.211-23.592,20.077c-2.372-12.903-2.342-29.808-9.982-43.983
				c-7.641-14.175-25.721-24.108-40.241-17.146c-9.555,4.58-14.889,14.801-19.063,24.539
				c-12.929,30.166-21.097,62.367-24.111,95.047c-1.918-12.456-4.39-26.696-10.4-39.267c-3.991-8.35-11.063-16.793-20.314-16.574
				c-6.674,0.157-12.35,4.859-16.73,9.897c-10.257,11.795-16.61,26.905-17.998,42.466c4.591-12.559,11.355-24.322,19.917-34.595
				c2.807-3.368,6.184-6.782,10.535-7.322c3.664-0.456,7.334,1.305,9.983,3.876c2.649,2.572,4.436,5.887,6.079,9.193
				c7.274,14.632,12.557,30.252,16.698,48.511c8.137-32.913,16.315-65.954,28.974-97.406c2.454-6.097,5.164-12.267,9.701-17.022
				c4.537-4.755,11.301-7.889,17.714-6.452c5.784,1.296,10.181,5.927,13.814,10.611c11.152,14.381,18.696,31.537,22.66,49.952
				c1.881-5.341,3.825-10.8,7.398-15.193c3.572-4.394,9.155-7.589,14.759-6.774c8.011,1.165,12.725,9.486,15.554,17.071
				c9.712,26.04,11.589,54.242,14.006,83.562c3.783-2.738,9.61-2.083,12.144,1.441c-0.301-19.986,2.863-40.02,9.308-58.941
				c2.343-6.88,6.502-14.694,13.75-15.243c5.907-0.448,10.832,4.3,14.499,8.952c9.815,12.455,16.966,26.998,20.791,43.106
				c3.28-4.266,6.597-8.573,10.75-11.995c4.153-3.422,9.276-5.931,14.657-5.987c8.228-0.086,15.637,5.63,19.889,12.674
				c4.253,7.045,5.934,15.298,8.145,23.315c5.305-11.614,18.2-19.294,30.94-18.427c8.138,0.555,15.715,4.208,22.876,8.116
				c7.16,3.906,14.261,8.183,22.17,10.183c5.822,1.473,12.266,1.512,17.778-0.631L422.299,354.208z"/>
			<path style="opacity:0.12;fill:#292940;" d="M248.791,405.066C89.307,376.136,19.405,383.524-2.166,387.632l0.132,47.993
				l401.89-10.54l-14.582-62.745C329.89,371.044,248.791,405.066,248.791,405.066z"/>
		</g>
		<g style="clip-path:url(#SVGID_00000034078259079332253960000011581874268403277241_);">
			<path style="fill:#6CAACC;" d="M229.287,423.985c94.675-43.08,191.247-86.707,294.532-99.01
				c84.17-10.026,170.824,1.551,249.409,33.323l-2.587,157.962l-534.646,8.521L229.287,423.985z"/>
			<path style="fill:#5E9DBF;" d="M230.908,448.345l0.692,10.392L375,486.428c0,0,45.52-63.55,126.373-90.973
				s208.842,11.374,208.842,11.374l11.852-5.42c0,0-58.854-28.272-157.13-39.088C425.147,346.939,275.472,423.348,230.908,448.345z"
				/>
			<path style="opacity:0.2;fill:#C7FFF3;" d="M536.527,329.769c75.712-7.465,188.308,15.297,226.022,28.747
				c3.596,1.283,7.147,2.214,10.628,2.853l0.05-3.071c-78.585-31.772-165.239-43.349-249.409-33.323
				c-68.199,8.124-133.471,29.908-197.203,56.171C328.274,380.604,461.288,337.188,536.527,329.769z"/>
			<path style="opacity:0.12;fill:#293940;" d="M770.953,497.198l2.094-127.842l-0.091-0.335c0,0-106.143-21.318-176.824-15.516
				c-70.681,5.802-124.599,65.934-124.599,65.934c-64.172-11.297-174.669-12.622-203.959-12.773
				c-12.804,5.732-25.563,11.529-38.287,17.319l6.168,92.677c34.728-2.32,104.675-10.684,104.675-10.684L770.953,497.198z"/>
		</g>
		<g style="clip-path:url(#SVGID_00000034078259079332253960000011581874268403277241_);">
			<path style="fill:#7DBDD4;" d="M555.445,446.065c-122.698-33.519-252.47-25.823-378.739-41.138
				c-67.911-8.236-139.006-22.83-202.97,1.423l2.39,105.651l587.189,7.099L555.445,446.065z"/>
			<g>
				<path style="fill:#6CAACC;" d="M413.946,493.49c-10.388,8.162-21.055,15.969-31.967,23.418l100.198,1.211L501.373,459
					c-54.107-24.787-120.706-31.828-178.063-15.948c-32.058,8.875-62.267,23.983-94.784,30.988
					c-28.498,6.138-57.964,5.88-86.844,9.852c-26.627,3.663-53.9,11.628-73.933,29.217l131.079,1.585
					c63.107-30.626,128.533-58.876,198.222-61.722c6.397-0.261,12.966-0.28,18.993,1.884c6.027,2.164,11.486,6.933,12.794,13.202
					C430.956,478.217,422.108,487.078,413.946,493.49z"/>
				<path style="fill:#6CAACC;" d="M-23.874,512.001l59.372,0.718c32.036-23.12,70.321-37.538,109.671-41.152
					c36.147-3.319,74.702,1.837,106.998-14.736c4.183-2.146,8.29-4.722,11.119-8.477c2.83-3.753,4.181-8.904,2.432-13.268
					c-1.768-4.414-6.331-7.194-10.981-8.185c-4.65-0.99-9.469-0.497-14.212-0.166c-42.265,2.95-84.149-7.387-125.971-14.16
					c-39.316-6.366-100.843-2.378-140.404,12.046L-23.874,512.001z"/>
			</g>
			<path style="opacity:0.2;fill:#C7FFF3;" d="M-9.407,407.835c0,0,53.275-16.879,126.593-4.747
				c73.319,12.132,156.312,30.593,245.628,32.703c63.691,1.504,109.315-1.55,130.257-3.427
				c-103.819-17.877-211.304-14.694-316.365-27.437c-63.333-7.681-129.434-20.886-189.939-2.961L-9.407,407.835z"/>
			<path style="opacity:0.12;fill:#293940;" d="M563.315,519.1l-7.87-73.035c-14.948-4.084-30.002-7.552-45.142-10.528
				c-107.68,46.885-229.073,67.77-229.073,67.77l-74.901,9.495c-48.527-56.439-220.484-60.701-220.484-60.701
				s-4.852,6.28-10.757,14.071l1.037,45.829L563.315,519.1z"/>
		</g>
		<g style="clip-path:url(#SVGID_00000034078259079332253960000011581874268403277241_);">
			<path style="fill:#95CDE6;" d="M281.264,507.913c84.081-5.728,162.917-40.767,240.94-72.624s160.212-61.491,244.28-55.558
				L778.452,504.9L281.264,507.913z"/>
			<path style="fill:#B1DEF2;" d="M519.684,460.619c-33.62,18.469-67.357,39.548-104.735,46.484l363.503-2.203l-5.159-53.957
				c-12.706,0.429-25.381,1.822-37.875,4.175c-38.362,7.222-76.318,23.49-114.977,18.076c-7.157-1.002-15.467-3.921-17.174-10.944
				c-1.34-5.518,2.165-11.017,6.04-15.17c7.995-8.569,18.177-14.785,28.599-20.146c36.503-18.778,88.481-29.52,130.345-28.721
				l-0.977-10.223C683.97,388.184,592.271,420.745,519.684,460.619z"/>
			<path style="opacity:0.2;fill:#C7FFF3;" d="M484.176,457.681c61.764-31.831,212.148-72.056,283.239-68.215l-0.931-9.736
				c-84.068-5.933-166.257,23.701-244.28,55.558s-156.859,66.896-240.94,72.624l31.882-0.193l21.492-0.588
				C334.637,507.132,421.596,489.932,484.176,457.681z"/>
			<path style="opacity:0.12;fill:#293940;" d="M771.928,436.667c-3.081-0.605-6.289-1.159-9.642-1.652
				c-97.399-14.336-205.78,50.461-237.777,71.424l253.943-1.539L771.928,436.667z"/>
		</g>
		<path style="clip-path:url(#SVGID_00000034078259079332253960000011581874268403277241_);fill:#3B5166;" d="M-32.684,501.121
			c0,0-15.838-16.266-2.997-23.115c12.842-6.849,24.4,11.558,24.4,11.558s-2.996-26.112,15.41-29.536
			c18.407-3.424,18.407,28.252,18.407,28.252s13.698-28.68,32.533-26.112c18.835,2.568,18.835,27.396,18.835,27.396
			s4.281-18.407,28.68-17.123c24.399,1.284,10.701,28.68,10.701,28.68H-32.684z"/>
		<path style="clip-path:url(#SVGID_00000034078259079332253960000011581874268403277241_);fill:#3B5166;" d="M291.165,504.479
			c0,0-8.346-16.229,0-21.33c8.346-5.1,12.52,10.665,12.52,10.665s-4.173-29.212,9.738-30.604
			c13.911-1.391,10.665,24.576,10.665,24.576s14.838-30.604,38.487-28.285c23.648,2.319,19.939,27.822,19.939,27.822
			s28.749-19.756,43.124-9.878c14.375,9.878,2.318,27.034,2.318,27.034H291.165z"/>
		<path style="clip-path:url(#SVGID_00000034078259079332253960000011581874268403277241_);fill:#3B5166;" d="M166.959,501.385
			h129.413c0,0,12.222-6.83,7.189-16.177c-5.033-9.347-22.288,3.235-22.288,3.235s10.065-27.68-12.941-28.039
			c-23.007-0.359-29.837,27.68-29.837,27.68s-4.493-16.536-9.526-14.559c-5.033,1.977-1.977,10.245-1.977,10.245
			s-7.908-10.425-12.941-8.268c-5.033,2.157-0.899,10.245-0.899,10.245s-18.693-20.67-33.252-15.997
			c-14.559,4.673-6.83,24.085-6.83,24.085s-8.448-12.222-13.48-6.83C154.557,492.397,166.959,501.385,166.959,501.385z"/>
		<path style="clip-path:url(#SVGID_00000034078259079332253960000011581874268403277241_);fill:#3B5166;" d="M564.519,501.385
			h129.413c0,0,12.222-6.83,7.189-16.177c-5.033-9.347-22.288,3.235-22.288,3.235s10.065-27.68-12.941-28.039
			c-23.007-0.359-29.837,27.68-29.837,27.68s-4.493-16.536-9.526-14.559c-5.032,1.977-1.977,10.245-1.977,10.245
			s-7.908-10.425-12.941-8.268c-5.032,2.157-0.899,10.245-0.899,10.245s-18.693-20.67-33.252-15.997
			c-14.559,4.673-6.83,24.085-6.83,24.085s-8.448-12.222-13.48-6.83C552.117,492.397,564.519,501.385,564.519,501.385z"/>
		<g style="clip-path:url(#SVGID_00000034078259079332253960000011581874268403277241_);">
			<g>
				<path style="opacity:0.3;fill:#FFF5AD;" d="M266.201,476.73c0-2.84-2.303-5.143-5.143-5.143s-5.143,2.303-5.143,5.143
					c0,2.84,2.302,5.143,5.143,5.143S266.201,479.571,266.201,476.73z"/>
				<circle style="fill:#FFFDD6;" cx="261.058" cy="476.73" r="1.711"/>
			</g>
			<g>
				<path style="opacity:0.3;fill:#FFF5AD;" d="M334.698,469.876c0-2.84-2.303-5.143-5.143-5.143s-5.143,2.302-5.143,5.143
					c0,2.84,2.303,5.143,5.143,5.143S334.698,472.716,334.698,469.876z"/>
				<path style="fill:#FFFDD6;" d="M331.266,469.876c0-0.945-0.766-1.711-1.711-1.711s-1.711,0.766-1.711,1.711
					c0,0.945,0.766,1.711,1.711,1.711S331.266,470.821,331.266,469.876z"/>
			</g>
			<g>
				<path style="opacity:0.3;fill:#FFF5AD;" d="M148.339,471.587c0-2.84-2.303-5.143-5.143-5.143s-5.143,2.302-5.143,5.143
					c0,2.84,2.302,5.143,5.143,5.143S148.339,474.428,148.339,471.587z"/>
				<circle style="fill:#FFFDD6;" cx="143.196" cy="471.587" r="1.711"/>
			</g>
			<g>
				<path style="opacity:0.3;fill:#FFF5AD;" d="M655.687,417.359c0-2.84-2.303-5.143-5.143-5.143c-2.84,0-5.143,2.302-5.143,5.143
					c0,2.84,2.303,5.143,5.143,5.143C653.384,422.502,655.687,420.199,655.687,417.359z"/>
				<path style="fill:#FFFDD6;" d="M652.255,417.359c0-0.945-0.766-1.711-1.711-1.711c-0.945,0-1.711,0.766-1.711,1.711
					c0,0.945,0.766,1.711,1.711,1.711C651.489,419.07,652.255,418.304,652.255,417.359z"/>
			</g>
			<g>
				<path style="opacity:0.3;fill:#FFF5AD;" d="M75.912,450.56c0-2.84-2.302-5.143-5.143-5.143c-2.84,0-5.143,2.302-5.143,5.143
					c0,2.84,2.302,5.143,5.143,5.143C73.61,455.703,75.912,453.401,75.912,450.56z"/>
				<path style="fill:#FFFDD6;" d="M72.48,450.56c0-0.945-0.766-1.711-1.711-1.711c-0.945,0-1.711,0.766-1.711,1.711
					c0,0.945,0.766,1.711,1.711,1.711C71.714,452.272,72.48,451.506,72.48,450.56z"/>
			</g>
			<g>
				<path style="opacity:0.3;fill:#FFF5AD;" d="M517.011,481.873c0-2.84-2.302-5.143-5.143-5.143c-2.84,0-5.143,2.303-5.143,5.143
					s2.303,5.143,5.143,5.143C514.708,487.016,517.011,484.714,517.011,481.873z"/>
				<circle style="fill:#FFFDD6;" cx="511.868" cy="481.873" r="1.711"/>
			</g>
			<g>
				<path style="opacity:0.3;fill:#FFF5AD;" d="M455.563,464.733c0-2.84-2.302-5.143-5.143-5.143c-2.84,0-5.143,2.303-5.143,5.143
					s2.303,5.143,5.143,5.143C453.261,469.876,455.563,467.574,455.563,464.733z"/>
				<path style="fill:#FFFDD6;" d="M452.132,464.733c0-0.945-0.766-1.711-1.711-1.711c-0.945,0-1.711,0.766-1.711,1.711
					s0.766,1.711,1.711,1.711C451.366,466.445,452.132,465.678,452.132,464.733z"/>
			</g>
			<g>
				<path style="opacity:0.3;fill:#FFF5AD;" d="M351.344,452.764c0-2.84-2.302-5.143-5.143-5.143c-2.84,0-5.143,2.302-5.143,5.143
					s2.302,5.143,5.143,5.143C349.041,457.907,351.344,455.604,351.344,452.764z"/>
				<path style="fill:#FFFDD6;" d="M347.912,452.764c0-0.945-0.766-1.711-1.711-1.711c-0.945,0-1.711,0.766-1.711,1.711
					s0.766,1.711,1.711,1.711C347.146,454.475,347.912,453.709,347.912,452.764z"/>
			</g>
			<g>
				<path style="opacity:0.3;fill:#FFF5AD;" d="M241.868,445.418c0-2.84-2.302-5.143-5.143-5.143s-5.143,2.303-5.143,5.143
					s2.303,5.143,5.143,5.143S241.868,448.258,241.868,445.418z"/>
				<circle style="fill:#FFFDD6;" cx="236.725" cy="445.418" r="1.711"/>
			</g>
			<g>
				<path style="opacity:0.3;fill:#FFF5AD;" d="M28.105,422.502c0-2.84-2.302-5.143-5.143-5.143c-2.84,0-5.143,2.303-5.143,5.143
					s2.302,5.143,5.143,5.143C25.802,427.645,28.105,425.342,28.105,422.502z"/>
				<path style="fill:#FFFDD6;" d="M24.673,422.502c0-0.945-0.766-1.711-1.711-1.711c-0.945,0-1.711,0.766-1.711,1.711
					s0.766,1.711,1.711,1.711C23.907,424.213,24.673,423.447,24.673,422.502z"/>
			</g>
			<g>
				<path style="opacity:0.3;fill:#FFF5AD;" d="M385.286,412.216c0-2.84-2.302-5.143-5.143-5.143c-2.84,0-5.143,2.303-5.143,5.143
					s2.302,5.143,5.143,5.143C382.983,417.359,385.286,415.056,385.286,412.216z"/>
				<path style="fill:#FFFDD6;" d="M381.854,412.216c0-0.945-0.766-1.711-1.711-1.711c-0.945,0-1.711,0.766-1.711,1.711
					c0,0.945,0.766,1.711,1.711,1.711C381.088,413.927,381.854,413.161,381.854,412.216z"/>
			</g>
			<g>
				<path style="opacity:0.3;fill:#FFF5AD;" d="M498.546,463.022c0-2.84-2.303-5.143-5.143-5.143s-5.143,2.303-5.143,5.143
					s2.303,5.143,5.143,5.143S498.546,465.862,498.546,463.022z"/>
				<circle style="fill:#FFFDD6;" cx="493.404" cy="463.022" r="1.711"/>
			</g>
			<g>
				<circle style="opacity:0.3;fill:#FFF5AD;" cx="599.297" cy="451.052" r="5.143"/>
				<circle style="fill:#FFFDD6;" cx="599.297" cy="451.052" r="1.711"/>
			</g>
			<g>
				<path style="opacity:0.3;fill:#FFF5AD;" d="M693.453,447.129c0-2.84-2.302-5.143-5.143-5.143c-2.84,0-5.143,2.303-5.143,5.143
					s2.302,5.143,5.143,5.143C691.151,452.272,693.453,449.969,693.453,447.129z"/>
				<path style="fill:#FFFDD6;" d="M690.022,447.129c0-0.945-0.766-1.711-1.711-1.711c-0.945,0-1.711,0.766-1.711,1.711
					s0.766,1.711,1.711,1.711C689.256,448.84,690.022,448.074,690.022,447.129z"/>
			</g>
			<g>
				<path style="opacity:0.3;fill:#FFF5AD;" d="M91.074,412.216c0-2.84-2.303-5.143-5.143-5.143s-5.143,2.303-5.143,5.143
					s2.303,5.143,5.143,5.143S91.074,415.056,91.074,412.216z"/>
				<circle style="fill:#FFFDD6;" cx="85.931" cy="412.216" r="1.711"/>
			</g>
			<g>
				<path style="opacity:0.3;fill:#FFF5AD;" d="M221.494,459.59c0-2.84-2.302-5.143-5.143-5.143c-2.84,0-5.143,2.302-5.143,5.143
					c0,2.84,2.302,5.143,5.143,5.143C219.192,464.733,221.494,462.431,221.494,459.59z"/>
				<path style="fill:#FFFDD6;" d="M218.063,459.59c0-0.945-0.766-1.711-1.711-1.711c-0.945,0-1.711,0.766-1.711,1.711
					c0,0.945,0.766,1.711,1.711,1.711C217.297,461.302,218.063,460.536,218.063,459.59z"/>
			</g>
			<g>
				<path style="opacity:0.3;fill:#FFF5AD;" d="M143.196,422.422c0-2.84-2.303-5.143-5.143-5.143c-2.84,0-5.143,2.303-5.143,5.143
					c0,2.84,2.302,5.143,5.143,5.143C140.893,427.565,143.196,425.263,143.196,422.422z"/>
				<path style="fill:#FFFDD6;" d="M139.764,422.422c0-0.945-0.766-1.711-1.711-1.711c-0.945,0-1.711,0.766-1.711,1.711
					c0,0.945,0.766,1.711,1.711,1.711C138.998,424.134,139.764,423.368,139.764,422.422z"/>
			</g>
		</g>
	</g>
</g>
</svg>
